<?xml version="1.0" encoding="UTF-8" standalone="no"?>
<!-- Created with Inkscape (http://www.inkscape.org/) -->

<svg
   version="1.1"
   id="svg1"
   width="1024"
   height="1024"
   viewBox="0 0 1024 1024"
   sodipodi:docname="hand.svg"
   inkscape:version="1.4 (e7c3feb100, 2024-10-09)"
   xmlns:inkscape="http://www.inkscape.org/namespaces/inkscape"
   xmlns:sodipodi="http://sodipodi.sourceforge.net/DTD/sodipodi-0.dtd"
   xmlns="http://www.w3.org/2000/svg"
   xmlns:svg="http://www.w3.org/2000/svg">
  <defs
     id="defs1" />
  <sodipodi:namedview
     id="namedview1"
     pagecolor="#ffffff"
     bordercolor="#000000"
     borderopacity="0.25"
     inkscape:showpageshadow="2"
     inkscape:pageopacity="0.0"
     inkscape:pagecheckerboard="0"
     inkscape:deskcolor="#d1d1d1"
     inkscape:zoom="0.85121155"
     inkscape:cx="691.3675"
     inkscape:cy="534.53222"
     inkscape:window-width="1840"
     inkscape:window-height="1011"
     inkscape:window-x="0"
     inkscape:window-y="0"
     inkscape:window-maximized="1"
     inkscape:current-layer="g1"
     showgrid="false" />
  <g
     inkscape:groupmode="layer"
     inkscape:label="Image"
     id="g1">
    <path
       id="path10924"
       style="fill:#f9f9f9;stroke-width:1.20127"
       d="m 487.29763,332.79474 c -6.01305,0 -7.43357,4.69267 -2.87601,9.49981 3.39329,3.57905 12.80122,1.5757 12.80122,-2.7258 0,-2.49728 -6.26668,-6.77401 -9.92521,-6.77401 z m -15.52544,6.92469 c -0.89679,0.0104 -0.74276,0.46505 0.38674,1.13575 2.40753,1.42961 2.84136,1.42961 1.87979,0 -0.42598,-0.63332 -1.44563,-1.14496 -2.26653,-1.13575 z m 27.18113,3.54892 c -1.38983,-0.1095 -2.88181,0.48882 -4.45228,1.79471 -3.1154,2.59061 -2.88215,6.79242 0.49443,8.96679 3.51738,2.26373 5.29833,2.26327 7.77617,-0.0158 2.49612,-2.29357 2.50585,-5.04049 0.0195,-8.29883 -1.15954,-1.52113 -2.44807,-2.33736 -3.83791,-2.44692 z m -17.30242,3.34429 c -1.64182,0.13195 -3.28222,0.73048 -4.69459,1.90489 -2.85558,2.37454 -2.97069,8.16217 -0.21784,10.95718 2.39207,2.42868 7.77079,2.76124 10.82839,0.66795 1.15633,-0.79165 2.45026,-3.0702 2.87599,-5.06252 1.08099,-5.05906 -3.86652,-8.86336 -8.79195,-8.4675 z m -15.9146,0.24289 c -2.13552,-0.37368 -4.11669,2.66925 -2.9078,4.46652 0.38754,0.57617 1.84018,1.04804 3.226,1.04804 1.89319,0 2.41811,-0.64168 2.1172,-2.57961 -0.22024,-1.41851 -1.31594,-2.73906 -2.4354,-2.93495 z m 0.0244,7.81754 c -6.38362,0 -9.68447,7.27302 -5.31384,11.71058 2.76518,2.80752 6.52342,2.6588 10.06473,-0.39807 5.59744,-4.83177 2.87546,-11.31251 -4.75089,-11.31251 z m 31.40825,3.57143 c -1.66653,0.0415 -3.37889,0.79643 -5.41665,2.26924 -4.32452,3.12559 -4.59217,9.31914 -0.51645,11.94223 6.13958,3.95133 13.92222,0.44708 13.92222,-6.26799 0,-2.57893 -0.92375,-4.50124 -2.85395,-5.93737 -1.8493,-1.37594 -3.46864,-2.04765 -5.13517,-2.00611 z m 48.63474,4.65094 c -0.90789,-0.0381 -1.81763,0.33486 -3.29697,1.09526 -4.19044,2.15395 -4.82629,5.9783 -1.50041,9.03426 3.12302,2.86956 5.99715,3.01772 9.06364,0.4678 3.32298,-2.7632 2.88292,-6.89737 -0.98395,-9.22543 -1.46838,-0.88402 -2.37441,-1.33382 -3.28231,-1.37189 z m -65.2763,0.44531 c -0.95766,0.0558 -1.98876,0.31455 -3.0669,0.78715 -3.8124,1.67113 -5.27243,6.8041 -2.73402,9.6145 4.07596,4.51267 13.32717,0.0104 11.76095,-5.72373 -0.87067,-3.18742 -3.08701,-4.84544 -5.96003,-4.67792 z m -59.9331,3.11036 c -1.16923,-0.21179 -2.58982,-0.16333 -4.20505,0.20916 -3.39005,0.78179 -4.10386,3.76406 -1.83329,7.66237 1.80146,3.09288 5.76705,2.78178 8.20942,-0.64321 2.57732,-3.61428 1.33663,-6.5929 -2.17108,-7.22832 z m 113.21594,1.08627 c -1.58877,-0.20694 -3.70354,0.24584 -4.69949,1.00531 -2.22061,1.69339 -2.40159,8.74738 -0.24476,9.54704 5.05894,1.87567 8.78904,-0.92759 8.24367,-6.19601 -0.32501,-3.13977 -1.02025,-4.05946 -3.29942,-4.35634 z m -125.41991,0.95359 c -5.78851,0 -9.87469,6.71922 -6.16071,10.13177 2.16726,1.99138 4.40871,1.70878 7.26951,-0.91984 3.69013,-3.39066 2.98931,-9.21193 -1.1088,-9.21193 z m 56.86131,1.94538 c -0.5825,-0.0783 -1.18563,-0.0558 -1.79902,0.0698 -0.81787,0.16724 -1.65493,0.51622 -2.49171,1.05478 -2.94499,1.89534 -3.56245,8.23932 -1.02801,10.56808 0.85818,0.78853 3.24534,1.28213 5.30405,1.09526 4.76437,-0.43248 6.99633,-5.11851 4.48899,-9.42333 -1.15809,-1.98829 -2.7268,-3.12976 -4.4743,-3.36452 z m -38.13679,0.41157 c -0.46592,-0.0322 -0.82979,0.34001 -1.35111,1.09753 -0.65378,0.94998 -1.19667,2.63403 -1.2067,3.74235 -0.0238,2.49489 2.87934,2.62664 5.04461,0.22939 1.33315,-1.47599 1.24296,-2.1239 -0.5189,-3.74235 -0.93447,-0.8584 -1.502,-1.29462 -1.9679,-1.32692 z m 130.96382,0.26314 c -0.90032,0.0757 -1.8851,0.32894 -2.98858,0.74892 -6.61976,2.51947 -6.50858,11.42048 0.17377,13.89437 1.50579,0.55744 2.8536,1.04608 2.99347,1.08626 0.13989,0.0402 1.70358,-0.5333 3.47567,-1.27519 4.01404,-1.68049 5.38747,-6.17994 3.04244,-9.97208 -2.05877,-3.32922 -3.9958,-4.70923 -6.69677,-4.48228 z m -58.79984,4.55649 c -1.9716,-0.26234 -4.04383,0.009 -5.26489,0.94009 -2.21638,1.69013 -2.36243,7.02997 -0.24476,8.97578 0.85817,0.78852 3.24534,1.28214 5.30405,1.09526 4.40523,-0.39989 7.16851,-5.36887 4.86591,-8.74863 -0.81933,-1.20265 -2.68871,-2.00016 -4.66031,-2.2625 z m -15.78732,0.9963 c -4.55414,-0.56115 -10.07942,2.63108 -10.07942,7.15185 0,2.97599 2.1764,5.97302 5.01279,6.90445 3.89537,1.27918 6.47545,0.71162 9.53358,-2.09833 3.38448,-3.10979 3.23934,-6.16631 -0.47729,-10.0553 -1.06158,-1.11084 -2.47161,-1.7156 -3.98966,-1.90267 z m 59.70301,0.24065 c -1.62803,-0.17673 -3.41265,0.16331 -5.1474,1.20772 -3.78193,2.2769 -4.31271,6.94402 -1.15529,10.14977 3.09325,3.1406 8.71662,2.71102 11.26407,-0.86138 3.40998,-4.78191 -0.0773,-9.96596 -4.96138,-10.49611 z m -112.04105,1.54056 c -0.65598,0.0201 -1.37095,0.2637 -2.10988,0.76018 -1.59414,1.07106 -1.95245,2.30585 -1.32908,4.58796 0.62984,2.30579 1.63621,3.12163 3.85015,3.12163 2.46634,0 2.99838,-0.58836 2.99838,-3.31505 0,-3.25453 -1.4417,-5.21509 -3.40957,-5.15472 z m -13.4792,0.10791 c -3.02957,0.0131 -5.78466,1.57933 -7.12267,4.2776 -1.26897,2.55905 -1.60443,2.67909 -2.9078,1.04129 -2.16864,-2.7251 -8.22896,-2.3249 -10.91405,0.72193 -2.78439,3.15952 -2.89708,6.74195 -0.31819,10.12503 3.54585,4.65157 13.08757,1.89025 13.08757,-3.78733 v -2.76177 l 3.15255,2.89897 c 2.31664,2.1286 3.89683,2.68954 5.95269,2.11407 8.68769,-2.43189 10.04783,-11.37301 2.14658,-14.11028 -1.02853,-0.35632 -2.06683,-0.52389 -3.07668,-0.51951 z m 109.15772,1.99261 c -1.98876,0.57907 -3.23012,3.40434 -3.9358,8.76888 -0.68213,5.1854 -0.44268,6.80133 1.24094,8.34831 2.649,2.43399 5.47102,2.41971 8.38809,0.0116 3.00659,-2.50011 2.91987,-6.39206 -0.18357,-8.17289 -1.875,-1.07595 -2.30302,-2.223 -1.75986,-4.71841 0.54151,-2.48781 0.17248,-3.48814 -1.50529,-4.07971 -0.83683,-0.29505 -1.58158,-0.35045 -2.24451,-0.15742 z m -62.06499,4.06621 c -7.37923,0 -10.61897,10.35036 -4.60158,14.6995 2.98825,2.15978 2.9998,2.23511 0.62661,4.10219 -3.03247,2.38576 -3.08268,5.52143 -0.13952,8.86109 2.22287,2.52233 2.20728,2.65428 -0.6266,5.25817 -3.59886,3.30679 -3.70762,7.28558 -0.30841,11.25627 3.10444,3.62637 5.44382,3.78484 10.87491,0.74219 3.22315,-1.80573 4.07288,-3.04759 4.07288,-5.95089 0,-4.17223 -3.04135,-7.87825 -6.46179,-7.87825 -2.77965,0 -3.06289,-1.79323 -0.43079,-2.7213 2.51608,-0.88715 2.41861,-6.98287 -0.1493,-9.34237 -1.11593,-1.02538 -1.82085,-1.99753 -1.56649,-2.15905 0.25437,-0.16152 2.06769,-1.2174 4.03126,-2.34797 3.40551,-1.96083 3.51436,-1.96329 2.32772,-0.0135 -2.22788,3.65794 0.70431,7.35993 5.89638,7.44422 3.62645,0.0589 4.004,0.25768 1.94832,1.0233 -3.175,1.18251 -5.02081,3.28924 -5.96001,6.80324 -0.90697,3.39336 3.91827,8.22238 8.21674,8.22238 3.84166,0 8.4395,-3.98501 8.4395,-7.31378 0,-2.6548 -3.52223,-6.96838 -6.50829,-7.97048 -1.31103,-0.43996 -1.32896,-0.85377 -0.071,-2.07583 2.15564,-2.09954 1.96119,-5.79231 -0.47239,-8.98478 -1.60185,-2.10136 -2.80952,-2.53066 -5.63939,-2.01061 -3.01534,0.55413 -3.60049,0.28162 -3.60049,-1.66651 0,-3.51471 -5.53867,-7.97724 -9.89828,-7.97724 z m 96.82159,2.76627 c -2.47809,-0.0514 -5.35293,1.50217 -6.93663,4.69593 -1.18768,2.39512 -1.04345,3.28563 0.83954,5.19745 4.62083,4.69158 10.65705,1.88335 10.65705,-4.95905 0,-3.22661 -2.08187,-4.88295 -4.55996,-4.93433 z m -65.01686,1.83969 c -6.16371,0 -11.17083,10.99631 -5.6149,12.3313 1.37851,0.33124 2.50639,1.05983 2.50639,1.61928 0,1.89683 5.02622,1.03005 7.13245,-1.2302 2.51046,-2.69407 3.42872,-6.96293 1.49797,-6.96293 -0.75866,0 -1.08169,-0.715 -0.71718,-1.58779 0.87866,-2.10392 -1.50188,-4.16966 -4.80473,-4.16966 z m -63.72695,0.0676 c -1.77066,-0.0951 -3.67751,0.44861 -5.00299,1.66652 -3.12185,2.86851 -3.66593,6.22462 -1.5004,9.26141 2.19777,3.08202 7.84439,3.85733 10.47594,1.43936 1.84693,-1.69704 1.95978,-7.2007 0.20803,-10.20824 -0.77509,-1.33072 -2.40996,-2.06394 -4.18058,-2.15905 z m 66.33125,1.08404 c 0.30394,0 0.55317,0.51816 0.55317,1.15148 0,0.63332 -0.59671,1.1515 -1.32662,1.1515 -0.73001,0 -0.97916,-0.51818 -0.55317,-1.1515 0.42598,-0.63332 1.02267,-1.15148 1.32662,-1.15148 z m 56.82948,1.79244 c 0.62498,-0.35491 0.84046,0.39151 0.47974,1.65978 -0.76522,2.68868 -1.61545,3.02875 -1.61545,0.64546 0,-0.91261 0.51072,-1.95032 1.13571,-2.30524 z m -12.65923,0.7804 c -5.56486,0.66819 -9.44262,6.73672 -5.32364,12.14014 2.36703,3.10516 8.68669,3.44673 12.04732,0.65223 3.47664,-2.89098 3.02611,-9.11479 -0.82975,-11.4362 -1.99633,-1.2019 -4.03899,-1.57888 -5.89393,-1.35617 z m -126.31085,2.03311 c -6.76482,0 -9.68304,5.88327 -5.58553,11.25853 2.31672,3.03914 8.19418,3.43474 11.11721,0.74891 4.39841,-4.04146 0.72835,-12.00744 -5.53168,-12.00744 z m -16.58771,3.45447 c -6.19331,0 -9.76874,10.49282 -5.16698,15.16506 3.14786,3.19605 9.91995,2.77927 12.44873,-0.76693 3.93615,-5.51979 -0.55362,-14.39813 -7.28175,-14.39813 z m 127.67174,2.30299 c -6.04913,0 -9.93622,8.69838 -5.88904,13.17918 3.96766,4.39276 13.84145,0.33117 13.84145,-5.69448 0,-3.62526 -4.10105,-7.4847 -7.95241,-7.4847 z m 30.29453,1.49333 c -2.16562,0.54306 -4.2262,2.25435 -5.84743,5.05127 -1.74986,3.01886 -0.19596,7.64772 3.17215,9.44808 8.17332,4.36892 15.95735,-6.28943 9.15665,-12.53821 -2.04375,-1.8779 -4.31575,-2.50418 -6.48137,-1.96114 z m -126.16888,2.12982 c -1.30982,-0.14867 -2.78378,0.4092 -5.24531,1.5788 -5.52985,2.62752 -6.90055,9.27843 -2.78298,13.50978 2.93882,3.02003 10.93876,2.69526 13.40822,-0.54426 2.88165,-3.78026 2.42217,-8.62813 -1.12592,-11.88825 -1.79918,-1.65317 -2.94418,-2.50742 -4.25401,-2.65607 z m 67.08267,2.33896 c -6.39039,-0.67533 -8.59581,3.7919 -4.30541,8.71941 2.22856,2.55948 7.0837,1.73237 7.92549,-1.34941 1.28675,-4.71073 0.17713,-6.96871 -3.62008,-7.37 z m 43.59506,4.40131 c -7.86086,0 -10.52809,9.0186 -3.92358,13.26914 3.67354,2.36423 5.48087,2.13826 9.03426,-1.12676 5.53985,-5.09024 2.57204,-12.14238 -5.11068,-12.14238 z m -127.75741,4.60597 c -2.90925,0 -4.85463,0.76559 -6.10199,2.40194 -1.55393,2.03848 -2.24732,2.197 -4.57466,1.05253 -4.226,-2.07814 -8.57937,-0.45614 -10.92874,4.07069 -2.55142,4.91619 -1.18769,9.57754 3.42671,11.71059 3.90594,1.80556 7.32625,0.96121 10.95567,-2.70781 1.84743,-1.86758 3.62637,-2.62839 5.12782,-2.19053 3.28906,0.95919 8.96083,-3.47845 8.96083,-7.01239 0,-4.99263 -2.1864,-7.32502 -6.86564,-7.32502 z m 112.72394,2.29399 c -5.73702,-0.41923 -10.89684,6.2028 -6.15827,12.419 2.76588,3.62837 8.42711,3.39977 11.74381,-0.47454 1.42855,-1.66871 2.59696,-3.67161 2.59696,-4.45077 0,-0.77917 -1.16841,-2.7821 -2.59696,-4.45079 -1.69495,-1.97992 -3.67319,-2.90317 -5.58554,-3.0429 z m 71.11885,0.0135 c -4.42357,0.12943 -9.04895,2.84773 -9.04895,6.90445 0,2.7243 4.20142,6.90895 6.93663,6.90895 1.54746,0 1.65491,0.45838 0.55562,2.34572 -1.78533,3.0652 -0.61292,6.23151 2.87354,7.76356 4.30747,1.89287 9.21958,0.27738 9.72939,-3.20033 0.58699,-4.00392 -0.21622,-5.87994 -3.01795,-7.05289 -2.82158,-1.18126 -2.87892,-1.41542 -1.13815,-4.62169 1.63232,-3.0065 1.61196,-3.69147 -0.18847,-6.21627 -1.46553,-2.05515 -4.04752,-2.90914 -6.70166,-2.8315 z m -105.20235,1.01429 c -0.84568,0.073 -2.4446,1.40066 -3.55154,2.95295 -2.16552,3.0368 -1.62144,6.39515 1.50041,9.26365 2.26126,2.07774 8.13083,2.27848 10.22872,0.35085 1.97831,-1.81775 1.93354,-9.52679 -0.0612,-11.03137 -1.52398,-1.14811 -4.99853,-1.80498 -8.11639,-1.53608 z m 64.48816,0.1327 c -2.89408,0 -9.69023,6.02933 -9.69023,8.59794 0,1.0275 1.38487,3.14142 3.07669,4.69593 4.08584,3.75425 8.58298,3.63366 11.96899,-0.32161 4.45719,-5.20653 1.25126,-12.97226 -5.35545,-12.97226 z m 55.18711,2.38844 c -1.93912,-0.26108 -4.17501,1.01337 -4.48898,3.03165 -0.2156,1.38584 0.22717,3.58327 0.98394,4.88259 0.75679,1.29931 1.98707,2.36372 2.73648,2.36372 0.88387,0 0.80803,-0.61798 -0.22028,-1.75647 -0.8719,-0.96529 -1.22367,-2.08726 -0.78081,-2.49416 0.44285,-0.40692 0.80527,-0.0802 0.80527,0.72643 0,0.80765 0.81611,1.178 1.81617,0.82539 1.27514,-0.4496 1.58496,-0.0853 1.04025,1.21896 -0.53027,1.2697 -0.29529,1.58344 0.74653,0.99181 1.68474,-0.95673 1.07384,-7.19068 -0.88116,-8.98703 -0.49807,-0.45765 -1.11104,-0.71587 -1.75741,-0.80289 z m -183.7351,1.81045 c -9.46927,1.57774 -10.45793,11.51412 -1.44901,14.55781 5.86694,1.98217 10.02556,-1.06921 10.02556,-7.35649 0,-5.154 -3.45514,-8.05466 -8.57655,-7.20132 z m 52.35517,1.55855 c -1.88376,0 -6.63288,2.40401 -7.72967,3.91329 -1.90581,2.62258 -0.94902,7.4777 1.82594,9.26366 5.66289,3.64449 12.25293,0.79516 12.25293,-5.29643 0,-3.23028 -3.74743,-7.88052 -6.3492,-7.88052 z m 105.31738,2.39294 c -0.3989,0.0518 -0.76688,0.38593 -1.18954,1.01431 -0.61513,0.91445 -0.83916,2.07663 -0.49933,2.58186 0.87569,1.30191 2.67942,1.1384 3.66902,-0.33285 0.4631,-0.68851 0.19118,-1.85069 -0.60458,-2.58186 -0.54681,-0.50244 -0.97656,-0.73327 -1.37557,-0.68146 z m -45.17623,1.15376 c -1.79391,-0.0695 -3.59196,0.53149 -5.13272,1.81269 -4.33613,3.60569 -2.12885,10.36053 3.97498,12.16713 6.94182,2.05463 11.66213,-6.81083 6.26599,-11.76905 -1.52377,-1.4001 -3.31433,-2.14118 -5.10825,-2.21077 z m 45.55806,4.51375 c -5.51243,0 -8.68857,9.80185 -4.54038,14.01356 4.49105,4.55982 11.712,0.57545 11.712,-6.46365 0,-3.95572 -3.41423,-7.54991 -7.17162,-7.54991 z m -173.11965,1.06377 c -2.37435,-0.003 -4.95324,0.982 -7.12266,3.13287 -3.88923,3.85561 -3.89338,6.67357 0.005,10.24872 6.2701,5.76127 14.46804,2.36975 14.46804,-5.98461 0,-4.65008 -3.39304,-7.39355 -7.3503,-7.39698 z m 202.60891,0.30587 c -6.29051,-0.6696 -8.2502,8.21139 -2.40114,10.8807 3.54182,1.61635 5.98838,0.97044 7.74435,-2.04435 1.92619,-3.30706 -1.14718,-8.3897 -5.34321,-8.83635 z m -90.57275,0.84788 c -2.39096,-0.0673 -4.69574,0.6919 -5.63938,2.31198 -1.93124,3.31577 -1.57157,8.25212 0.77591,10.63555 2.76518,2.80752 6.52342,2.6588 10.06473,-0.39807 3.37481,-2.91319 3.69947,-6.29962 0.94969,-9.90689 -1.28277,-1.68276 -3.75999,-2.57527 -6.15095,-2.64257 z m -30.42915,0.12144 c -1.74766,0.0755 -3.60195,0.8259 -5.28203,2.48291 -3.22906,3.18464 -3.24146,6.05961 -0.0491,8.99602 3.32559,3.05569 8.14552,2.9388 10.58119,-0.25639 4.27396,-5.60672 -0.008,-11.44898 -5.2502,-11.22254 z m -100.28991,2.267 c -2.19606,0 -4.14232,5.74138 -2.75359,8.12566 2.38416,4.09331 8.73564,1.6225 8.73564,-3.39824 0,-2.15372 -3.25732,-4.72742 -5.98205,-4.72742 z m 160.35273,0.55326 c -0.86273,0.043 -1.75678,0.225 -2.6606,0.569 -6.48908,2.46973 -7.22388,11.55144 -1.07941,13.34335 1.31789,0.38433 2.20763,1.04285 1.97526,1.46411 -3.77188,6.8377 -3.85142,7.15699 -2.43541,10.01257 0.79428,1.60181 2.71961,3.38133 4.27604,3.956 3.81937,1.41021 3.58792,1.43644 6.17541,-0.71517 4.75791,-3.95641 2.02836,-11.90255 -4.59913,-13.3861 -2.28861,-0.51229 -2.26438,-0.57298 0.28393,-0.69494 1.53493,-0.0734 3.7108,-1.42598 4.83655,-3.00467 3.80725,-5.33904 -0.73359,-11.84466 -6.77264,-11.54415 z m -124.87652,2.06684 c -1.67383,-0.0654 -3.17705,0.24378 -3.17705,0.97832 0,0.55415 -0.8459,1.00755 -1.87979,1.00755 -3.06288,0 -2.37988,6.45593 0.90562,8.57097 3.69594,2.37864 7.99794,2.27416 9.17134,-0.22266 1.16776,-2.48486 0.72928,-7.32762 -0.82241,-9.06799 -0.67851,-0.76103 -2.52378,-1.20085 -4.19771,-1.26619 z m 48.84035,3.30603 c -1.32965,0.19008 -2.71945,0.72439 -4.11695,1.62378 -3.8375,2.4698 -3.8375,8.91469 0,11.38448 6.16842,3.96985 14.54533,0.0168 12.88932,-6.08132 -1.35235,-4.97986 -4.78339,-7.49716 -8.77237,-6.92694 z m 120.48789,1.10202 c -2.71191,0.48089 -5.2601,2.1745 -6.27086,4.83762 -0.93147,2.4542 4.13533,7.65996 7.59015,7.79954 1.56405,0.0632 1.25527,0.42619 -1.00843,1.18973 -4.611,1.55527 -6.95729,5.94711 -5.13761,9.61676 1.67504,3.37795 7.15606,4.97802 10.49306,3.06315 1.9297,-1.10733 2.48576,-0.98427 3.13788,0.69493 0.43599,1.12266 1.33796,2.68982 2.00462,3.48146 1.75138,2.07977 10.29261,1.80433 12.27986,-0.39582 0.9115,-1.00917 1.65949,-3.55124 1.65949,-5.64951 0,-2.09825 -0.74799,-4.64256 -1.65949,-5.65176 -1.8233,-2.01863 -6.60053,-2.40841 -9.89096,-0.80739 -1.58134,0.76943 -2.92998,0.1994 -5.37992,-2.27149 -3.17169,-3.19877 -3.19998,-3.35635 -0.9399,-5.23569 2.84219,-2.36341 2.95691,-4.85235 0.3794,-8.23361 -1.66798,-2.18809 -4.54538,-2.91882 -7.25729,-2.43792 z m -59.10579,1.11775 c -1.92512,-0.0466 -3.9619,0.68968 -5.62469,2.21753 -3.00374,2.75997 -3.25155,7.21156 -0.53848,9.70445 1.08311,0.99523 3.58195,1.81046 5.55126,1.81046 6.7474,0 9.66069,-5.89238 5.5684,-11.26078 -1.21784,-1.59759 -3.03136,-2.42504 -4.95649,-2.47166 z m 77.29181,2.21753 c -1.90566,0 -4.1416,0.62091 -4.96871,1.38089 -2.49268,2.29037 -1.78588,7.51824 1.28255,9.49305 1.53188,0.98588 3.09805,1.79246 3.48057,1.79246 0.38253,0 1.94867,-0.80658 3.48054,-1.79246 5.04207,-3.24499 2.74419,-10.87394 -3.27495,-10.87394 z m -216.38181,1.15148 c -7.3201,0 -11.84709,8.9424 -7.4482,14.71301 4.34803,5.70387 16.84715,1.19545 16.84715,-6.07682 0,-3.8392 -5.22066,-8.63619 -9.39895,-8.63619 z m 61.46043,0.40483 c -0.82963,0.006 -1.69692,0.1734 -2.57738,0.542 -3.61191,1.51214 -5.13741,5.94536 -3.19418,9.28166 1.04278,1.79033 0.99001,2.97141 -0.20805,4.7409 -1.32115,1.95126 -1.25304,2.90224 0.39162,5.54381 1.65186,2.65311 1.70454,3.43205 0.3133,4.6262 -2.33722,2.00612 -2.08875,9.37568 0.40142,11.90399 2.31967,2.35518 5.67251,2.69151 9.25699,0.92883 2.01269,-0.98973 2.52087,-0.71072 3.19418,1.75424 0.44033,1.61203 2.0036,3.71283 3.47567,4.66894 3.77257,2.45026 8.26036,1.62575 11.24937,-2.06909 2.44049,-3.01678 2.46073,-3.33643 0.47241,-7.16759 -2.30254,-4.43664 -6.68784,-6.15187 -10.69132,-4.18315 -2.17342,1.06878 -2.68121,0.77611 -3.81099,-2.20178 -0.71671,-1.88908 -2.7416,-4.03794 -4.50123,-4.77464 -3.43089,-1.43635 -4.01603,-2.67393 -1.84551,-3.90652 0.76096,-0.43213 1.00922,-2.03653 0.56539,-3.66139 -0.58654,-2.14729 -0.12957,-3.32045 1.777,-4.54748 5.5446,-3.56841 1.5387,-11.52147 -4.26869,-11.47893 z m 121.66276,1.92515 c -1.07614,0.0911 -2.13238,0.51994 -3.03999,1.3539 -2.27539,2.09074 -1.86857,8.6796 0.61437,9.95634 3.75498,1.93087 9.18579,-0.96103 9.12238,-4.85784 -0.0644,-3.96156 -3.4684,-6.72559 -6.69676,-6.4524 z m -87.66739,0.0787 c -0.79415,-0.16907 -1.65477,-0.16683 -2.53577,0.018 -1.17465,0.24938 -2.38724,0.82934 -3.53196,1.7812 -2.84373,2.3647 -2.91351,4.76574 -0.21782,7.50269 4.11817,4.18124 10.45879,1.96909 10.45879,-3.65013 0,-3.1105 -1.79079,-5.1445 -4.17324,-5.65176 z m 27.9766,0.0337 c -1.76386,-0.30094 -3.49941,0.0871 -4.75577,1.24146 -1.97511,1.81481 -1.93378,9.27238 0.0636,11.13032 0.93628,0.87164 3.03047,1.19458 5.20615,0.80066 7.34442,-1.32982 8.92578,-5.00949 4.41555,-10.27798 -1.37217,-1.60287 -3.16569,-2.59352 -4.92956,-2.89446 z m -101.47211,2.01286 c -2.6963,-0.62057 -3.1302,4.32818 -0.68045,7.76358 1.12723,1.58074 3.28673,3.31354 4.79739,3.85254 3.71603,1.32591 7.65055,-1.10466 8.1629,-5.04452 0.54482,-4.18967 -1.70807,-6.36454 -6.47402,-6.24549 -2.17514,0.0543 -4.7883,-0.0919 -5.80582,-0.32611 z m 53.81153,5.99586 c -6.4433,0.1004 -10.71239,5.7549 -7.3919,11.21578 2.29593,3.77591 9.75396,4.92357 12.46832,1.91841 1.49766,-1.65812 1.82914,-1.44621 3.02529,1.9274 0.73894,2.08411 2.7536,4.4436 4.47675,5.24242 3.7818,1.7532 2.95601,1.71005 6.83382,0.35535 3.58843,-1.25357 6.164,-6.06685 5.02013,-9.37835 -2.04415,-5.91786 -9.73907,-7.52055 -14.49742,-3.02041 -1.50673,1.42497 -2.38117,2.00082 -1.94344,1.28192 1.52015,-2.49651 -1.78386,-8.45988 -5.11313,-9.22767 -0.99344,-0.22909 -1.95796,-0.3292 -2.87842,-0.31485 z m 65.1221,1.06377 c -3.1482,0 -7.42861,4.43685 -7.42861,7.7006 0,1.46389 1.12787,3.69917 2.50639,4.9658 5.01797,4.61074 12.84525,1.3422 12.84525,-5.36387 0,-3.45416 -4.17665,-7.30253 -7.92303,-7.30253 z m -125.69403,1.1515 c -7.46383,0 -10.9031,6.82681 -5.80094,11.5149 5.17977,4.75939 12.53197,1.80441 12.53197,-5.03553 0,-4.62436 -1.92829,-6.47937 -6.73103,-6.47937 z m 168.4887,3.43647 c -2.17551,-0.0879 -4.28092,0.76093 -5.66386,2.57512 -2.61708,3.43318 -2.45763,5.75274 0.64618,9.37836 1.49223,1.7431 3.85337,3.03391 5.54882,3.03391 2.96329,0 8.14578,-4.76189 8.14578,-7.48469 0,-0.77917 -1.16843,-2.78209 -2.59697,-4.45079 -1.65835,-1.93716 -3.90445,-2.96394 -6.07995,-3.05191 z m -59.26978,2.37721 c -2.29286,-0.16616 -4.57127,0.24879 -5.74218,1.32466 -1.84694,1.69704 -1.95734,7.20069 -0.20561,10.20824 1.64705,2.8278 7.64723,2.9533 10.26543,0.21366 3.33888,-3.49373 3.9165,-7.14486 1.51511,-9.58302 -1.23111,-1.24994 -3.53989,-1.99739 -5.83275,-2.16354 z m -126.09057,0.92658 c -5.31233,0.14581 -10.00317,6.77314 -6.42997,12.9093 1.44504,2.48089 7.28843,3.01709 11.31548,1.03679 3.08374,-1.51643 3.29852,-8.6787 0.35002,-11.67234 -1.62508,-1.64996 -3.46473,-2.32235 -5.23553,-2.27375 z m 29.99102,0.30363 c -1.42896,0.16653 -2.84938,0.73223 -4.09736,1.76995 -3.29247,2.73786 -3.01683,9.01223 0.49443,11.27203 1.53188,0.98588 4.03771,1.79247 5.56839,1.79247 3.15693,0 6.68454,-3.95003 6.68454,-7.4847 0,-4.75191 -4.36303,-7.84937 -8.65,-7.34975 z m 127.53713,2.18153 c -2.2571,-0.0634 -4.71066,0.55739 -6.31493,1.89141 -3.06218,2.54636 -3.12696,10.20056 -0.0979,11.82078 3.01836,1.61536 9.51779,1.53485 11.33996,-0.13943 1.84621,-1.69639 1.96844,-8.33732 0.20803,-11.35974 -0.8166,-1.40201 -2.87806,-2.14963 -5.13515,-2.21302 z m 43.31112,2.28948 c -4.06546,0 -8.05931,3.86312 -8.03563,7.77257 0.0225,3.71466 0.94631,5.18981 4.36661,6.97193 1.37852,0.71826 3.23628,1.32117 4.12918,1.3404 2.4417,0.0526 7.77618,-5.3099 7.77618,-7.81754 0,-3.43905 -4.81033,-8.26736 -8.23634,-8.26736 z m -61.03943,3.45448 c -5.092,0 -7.16916,1.74173 -7.16916,6.0116 0,2.33365 0.86787,3.61172 3.08158,4.53849 2.45548,1.028 2.83755,1.71118 1.8798,3.35552 -2.05735,3.53222 -1.36596,7.73636 1.58362,9.63474 3.74867,2.41258 6.7356,2.25607 9.74654,-0.51052 1.37852,-1.26665 2.5064,-3.22611 2.5064,-4.35183 0,-2.77051 -3.48582,-7.16309 -5.68346,-7.16309 -1.44584,0 -1.51319,-0.54284 -0.3549,-2.87872 2.27664,-4.59114 -0.34212,-8.63619 -5.59042,-8.63619 z m -124.23035,1.2662 c -1.76634,0.0257 -3.54337,0.82212 -5.3579,2.38844 -4.62031,3.9883 -3.46542,9.16821 2.73892,12.28632 1.37852,0.69279 2.68284,1.2762 2.90046,1.29542 1.00409,0.0889 5.96905,-2.74675 6.79222,-3.87953 1.82657,-2.51354 0.9151,-7.54886 -1.78432,-9.85964 -1.76848,-1.51388 -3.52303,-2.25688 -5.28938,-2.23101 z m 202.20751,1.03679 c -6.87415,0 -10.84511,6.83256 -7.40415,12.74061 1.92762,3.30947 10.4327,3.09435 13.04352,-0.3306 1.07297,-1.40755 1.95078,-3.62385 1.95078,-4.92532 0,-3.9999 -3.53386,-7.48469 -7.59015,-7.48469 z m -33.33207,3.45447 c -5.43,0 -7.41491,8.55431 -2.93963,12.6664 1.37853,1.26664 3.35231,2.30299 4.38619,2.30299 2.91409,0 6.89258,-4.29649 6.89258,-7.44197 0,-3.47928 -4.48629,-7.52742 -8.33914,-7.52742 z m -88.37228,0.22041 c -5.73747,-0.61442 -9.84478,7.48519 -5.11069,10.07781 3.07094,1.68179 7.95358,1.00932 9.53604,-1.31342 2.15625,-3.16499 -0.4554,-8.33925 -4.42535,-8.76439 z m 28.20423,0.92885 c -2.00324,0.19454 -3.75414,1.51936 -5.01522,3.94925 -1.73283,3.33888 -1.80142,4.49311 -0.45282,7.48469 0.87697,1.94537 2.10271,3.53769 2.72423,3.53769 0.62155,0 0.22334,1.26797 -0.88359,2.82026 -1.18486,1.66156 -1.67669,3.79271 -1.19691,5.18171 1.2656,3.66394 7.86843,3.26914 8.90699,-0.53301 0.43474,-1.59152 0.17666,-3.57565 -0.5752,-4.40806 -1.04304,-1.15478 -0.48421,-2.11303 2.36443,-4.0482 4.637,-3.15006 4.88112,-7.27734 0.65842,-11.15733 -2.27116,-2.08684 -4.52707,-3.0216 -6.53033,-2.827 z m -124.65378,2.30523 c -6.50961,0 -9.68063,9.37369 -4.71418,13.93709 3.0615,2.81303 9.45186,2.32098 12.08895,-0.93109 3.90336,-4.81364 -0.74201,-13.006 -7.37477,-13.006 z m 31.72396,0.0359 c -1.7285,0.0372 -3.55809,0.72345 -5.23797,2.267 -3.01093,2.76658 -3.18127,5.5111 -0.55561,8.95554 2.56552,3.36552 9.90307,3.57077 11.79032,0.3306 3.45848,-5.93777 -0.81129,-11.6648 -5.99674,-11.55314 z m 127.08186,3.41849 c -4.00468,0 -5.99635,2.55958 -5.51945,7.09336 0.28115,2.67282 1.32324,4.22266 3.53196,5.25143 2.75676,1.28404 3.39634,1.16827 5.32607,-0.96482 3.96731,-4.38538 1.91453,-11.37997 -3.33858,-11.37997 z m -95.80582,0.30816 c -1.85969,0.10593 -3.75782,1.14781 -5.06907,3.30153 -1.65516,2.71856 -1.62318,3.34691 0.30105,6.04533 3.77426,5.29277 10.86266,3.40391 10.86266,-2.89447 0,-4.20651 -2.99516,-6.62901 -6.09464,-6.45239 z m 140.66873,2.85174 c -1.89837,-0.30178 -3.97035,0.0958 -5.92574,1.50908 -4.06454,2.9377 -4.38949,7.66718 -0.77347,11.23379 3.18694,3.14313 7.94522,3.23618 11.22982,0.21815 5.29509,-4.86536 1.16456,-12.05569 -4.53061,-12.96102 z m 16.40904,2.809 c -0.79499,-0.008 -1.70846,0.0824 -2.55044,0.27664 -3.62561,0.83611 -4.13946,4.57838 -0.86893,6.32869 2.67926,1.43387 2.22702,1.3798 4.5967,0.54427 2.22618,-0.78494 2.69735,-5.66787 0.65841,-6.82574 -0.36421,-0.20685 -1.04075,-0.31551 -1.83574,-0.32386 z m -203.30894,0.94009 c -2.21188,0 -6.92874,2.27221 -8.1213,3.91327 -1.9058,2.62259 -0.949,7.47771 1.82594,9.26366 5.96566,3.83934 13.50614,0.9068 13.50614,-5.25144 0,-3.35985 -4.15423,-7.92549 -7.21078,-7.92549 z m 62.97798,0 c -3.22628,0 -8.14577,4.486 -8.14577,7.42847 0,3.42033 3.27748,7.30648 6.58905,7.81079 3.24917,0.49481 6.09999,-0.55054 8.37586,-3.06988 1.42875,-1.58183 1.95433,-1.51933 4.85614,0.57798 2.26058,1.63391 4.22167,2.128 6.42751,1.6193 3.89363,-0.89794 5.03679,-2.43051 5.06174,-6.79202 0.0393,-6.87379 -7.43772,-9.93442 -12.62497,-5.16821 l -2.61898,2.40645 -2.78787,-2.40645 c -1.5333,-1.32355 -3.84305,-2.40643 -5.13271,-2.40643 z m 106.8496,2.41094 c -1.87842,-0.21967 -3.76271,0.33121 -5.25265,1.70024 -2.24718,2.0648 -2.58814,7.63972 -0.67068,10.93241 0.90671,1.55675 0.88169,2.9446 -0.0906,4.60822 -1.06465,1.82789 -0.96102,2.97459 0.44302,4.94332 1.56466,2.19413 1.57733,2.87957 0.0881,4.7499 -2.42672,3.04938 -2.16779,5.95614 0.76855,8.65419 1.37852,1.26664 3.3523,2.30298 4.38619,2.30298 2.9375,0 6.89257,-4.30564 6.89257,-7.50269 0,-1.99435 -1.19185,-3.56243 -3.82812,-5.03552 -3.08442,-1.72352 -3.43034,-2.27812 -1.78434,-2.85851 1.39254,-0.49099 1.91737,-1.80385 1.65217,-4.12691 -0.26984,-2.36374 0.47067,-4.14168 2.41338,-5.8047 3.48911,-2.98679 3.54686,-5.73112 0.20314,-9.63698 -1.46811,-1.71494 -3.34241,-2.7063 -5.22082,-2.92595 z m -154.08186,2.23101 c -2.12457,0.14325 -4.17262,1.00157 -5.33098,2.52113 -3.5526,4.66043 -1.71967,9.58059 4.3152,11.58238 2.3876,0.79204 6.61391,-0.24387 7.81289,-1.91615 1.62849,-2.27135 1.01887,-8.55012 -1.01087,-10.41514 -1.46152,-1.34291 -3.66167,-1.91549 -5.78624,-1.77222 z m 104.89394,0.55326 c -1.01327,-0.0906 -1.89775,0.13119 -2.52108,0.74441 -2.02069,1.98793 -3.28652,6.99031 -2.1417,8.46526 0.48825,0.62907 2.43932,1.87762 4.33479,2.77527 1.89545,0.89768 3.44628,1.9649 3.44628,2.37271 0,0.40781 -1.69181,2.23244 -3.75959,4.05272 l -3.75958,3.30828 v -4.24612 c 0,-7.37392 -7.39023,-11.39936 -12.74735,-6.94495 -4.90092,4.07533 -1.87381,11.35635 5.26733,12.66867 1.93615,0.35581 3.76574,1.58079 4.09737,2.74602 0.40345,1.41761 1.38871,1.91631 3.01794,1.52483 1.34584,-0.32338 3.14275,0.22028 4.05087,1.22572 3.86406,4.27807 11.35219,0.85879 11.35219,-5.18396 0,-1.85472 0.52472,-3.37126 1.16752,-3.37126 2.2028,0 2.87111,-4.71638 0.94969,-6.70429 -1.02738,-1.06294 -2.72604,-3.84064 -3.77428,-6.17354 -1.74686,-3.88775 -5.9406,-6.98777 -8.9804,-7.25977 z m -73.21404,1.98811 c -0.95616,-0.14356 -1.89129,0.0983 -3.23579,0.66122 -6.52251,2.73064 -6.55043,11.5052 -0.039,14.22946 l 3.15502,1.32242 -2.79521,1.27969 c -1.53742,0.70426 -3.35312,2.73547 -4.03372,4.51374 -1.07054,2.79698 -0.81847,3.52879 1.86021,5.4201 4.76942,3.3675 9.38261,2.90834 11.19554,-1.11326 1.68497,-3.73774 0.3918,-7.22752 -3.39734,-9.17594 -1.93853,-0.99682 -1.80035,-1.36774 1.33886,-3.63664 4.54341,-3.28381 4.24571,-8.48508 -0.67798,-11.84777 -1.4353,-0.98024 -2.41426,-1.50947 -3.37043,-1.65302 z m 153.14196,0.8951 c -1.09886,0.0191 -2.32271,0.18206 -3.66902,0.49254 -6.57203,1.51561 -6.09115,10.97929 0.66575,13.09821 6.84744,2.14734 11.97012,-3.21095 9.43322,-9.86638 -0.96494,-2.5315 -3.13336,-3.78169 -6.42995,-3.72437 z m -59.14741,0.55777 c -5.65106,0 -9.90664,4.73779 -7.68316,8.55522 0.80463,1.38145 2.69439,2.969 4.20016,3.52644 5.00786,1.85395 6.9949,1.18904 9.49933,-3.1801 2.46164,-4.2945 -0.65202,-8.90156 -6.01633,-8.90156 z m -156.84768,1.72723 c -5.87814,0 -8.31838,8.40337 -3.67882,12.66641 1.37851,1.26664 3.63427,2.30298 5.01278,2.30298 3.44,0 7.51917,-4.01549 7.51917,-7.40149 0,-3.09316 -5.23537,-7.5679 -8.85313,-7.5679 z m 199.88468,3.45447 c -3.37097,0 -7.87101,2.64274 -8.56922,5.03327 -1.13227,3.87675 -0.91382,4.82536 1.84796,8.05145 5.05131,5.90055 13.72881,2.7339 13.97117,-5.09849 0.11856,-3.83281 -3.65282,-7.98623 -7.24991,-7.98623 z m -103.09002,2.30299 c -3.6104,0 -7.73701,2.97353 -7.73701,5.57528 0,1.26849 -0.9876,0.89332 -3.51483,-1.3314 -4.54371,-3.99985 -9.29419,-4.01998 -12.68616,-0.0585 -3.41091,3.98436 -3.27813,6.80709 0.47975,10.25998 1.69182,1.55452 4.1782,2.82701 5.52678,2.82701 2.50953,0 8.90599,-6.00689 8.98531,-8.43828 0.0244,-0.74305 0.80797,-0.0824 1.74273,1.4686 2.12217,3.52103 5.43606,4.67339 9.46505,3.28805 3.76259,-1.29374 4.99481,-2.91118 5.02012,-6.59184 0.0256,-3.71605 -3.39006,-6.9989 -7.28174,-6.9989 z m -78.74816,0.11694 c -1.44431,0.15424 -2.75306,0.87436 -4.18058,2.18604 -3.40582,3.12941 -3.26545,8.59273 0.27901,10.87394 5.8529,3.76682 13.52465,0.91702 13.48654,-5.00853 -0.0233,-3.63252 -1.02027,-5.11509 -4.59912,-6.84598 -1.9633,-0.94954 -3.54155,-1.35971 -4.98585,-1.20547 z m 18.32308,6.32876 c -1.34598,0.14143 -2.75898,0.68213 -4.13651,1.67777 -3.76312,2.71984 -4.25035,6.27606 -1.37803,10.04406 1.33409,1.75009 3.23439,2.55937 6.01387,2.55937 5.08948,0 7.08554,-1.78066 7.03453,-6.27698 -0.0596,-5.2602 -3.49586,-8.42849 -7.53386,-8.00422 z m 124.71009,0.9041 c -0.87108,-0.29638 -1.9182,-0.25382 -3.43405,0.0225 -7.08612,1.30221 -9.82343,9.22062 -4.39598,12.71365 8.15906,5.25102 16.06526,-3.05868 10.21404,-10.73452 -0.81757,-1.0725 -1.51294,-1.70523 -2.38401,-2.00161 z m 54.61435,1.00306 c -1.01558,-0.11077 -2.09714,0.20093 -3.85015,0.86812 -3.40846,1.29725 -6.23905,4.91436 -6.23905,7.97048 0,0.50669 1.16842,2.28505 2.59695,3.95374 3.19201,3.72868 9.69915,4.15012 12.9603,0.83888 3.15469,-3.20298 2.16249,-9.11723 -2.00707,-11.9647 -1.496,-1.02166 -2.44539,-1.55572 -3.46098,-1.66652 z m -212.10089,2.39519 c -0.95102,0.0518 -1.82939,0.58417 -3.36796,1.63503 -4.13514,2.82431 -5.15354,9.77313 -1.91405,13.06223 2.33419,2.36993 8.05267,2.8788 11.77562,1.04803 2.93492,-1.44325 4.37393,-7.20083 2.57249,-10.29369 -0.75558,-1.29723 -3.12506,-3.19115 -5.26489,-4.2079 -1.82604,-0.86764 -2.85017,-1.29548 -3.80121,-1.2437 z m 112.65053,0.13269 c -1.03148,-0.19107 -2.14991,-0.18899 -3.30188,0.0427 -3.88364,0.78376 -7.07933,4.31747 -5.72505,6.33093 0.40204,0.59773 -1.20645,0.34298 -3.57599,-0.56673 -3.98173,-1.52865 -4.56179,-1.47172 -7.63422,0.74892 -7.36258,5.32139 -0.97093,15.99497 7.76393,12.96552 3.48181,-1.20759 3.52435,-1.17091 3.03753,2.66057 -0.3309,2.60438 0.23676,4.62839 1.72315,6.13754 2.43297,2.47021 6.91208,2.91635 10.68398,1.06152 1.69345,-0.83275 2.45434,-2.48119 2.52351,-5.46958 0.0543,-2.35266 0.39628,-3.59661 0.75877,-2.76403 0.3625,0.83259 2.04068,1.99608 3.73022,2.58637 4.03228,1.40864 10.14241,-1.41799 11.16617,-5.16597 0.75709,-2.77168 -1.17028,-7.42769 -3.72286,-8.99378 -4.62947,-2.8403 -12.03019,1.33308 -12.03019,6.78299 0,2.97025 -0.07,2.99823 -2.47213,1.00082 -1.71953,-1.4298 -3.58853,-1.85135 -6.13625,-1.38315 -3.41502,0.62758 -3.69642,0.40587 -4.16345,-3.27005 -0.45457,-3.57771 -0.31245,-3.78491 1.53468,-2.249 4.33047,3.60098 11.23715,0.80689 11.23715,-4.54524 0,-3.02898 -2.3026,-5.33719 -5.39707,-5.91039 z m -92.07804,6.61434 c -2.43282,-0.34452 -4.91466,0.15195 -6.6576,1.60128 -3.60354,2.99649 -3.14504,8.97553 0.91296,11.90849 5.41404,3.91308 10.27864,2.64049 13.0019,-3.4005 1.42346,-3.15763 1.32102,-3.92922 -0.89094,-6.66379 -1.54948,-1.91562 -3.93353,-3.10096 -6.36632,-3.44548 z m 174.12074,0.13494 c -1.83341,0.22559 -3.35866,1.14535 -3.38999,2.04209 -0.0314,0.89675 -0.73626,1.501 -1.56649,1.34266 -0.83024,-0.15832 -1.5102,0.78105 -1.5102,2.08933 0,3.13614 2.33907,7.06525 3.73511,6.27248 0.60706,-0.34474 1.45909,-0.10168 1.89202,0.542 1.8946,2.81674 7.38376,0.0514 8.50313,-4.28434 0.99576,-3.85687 -3.46855,-8.52047 -7.66358,-8.00422 z m 303.30023,0.42057 c -0.38805,0.27468 -0.77716,0.54828 -1.16511,0.82312 0.39219,-0.18954 0.78418,-0.3794 1.17493,-0.57125 0,-0.0839 -0.01,-0.16793 -0.0106,-0.25187 z m -449.40031,0.0854 c -4.60625,0 -7.31046,2.41738 -6.40548,5.73047 0.65359,2.39277 0.45371,2.59343 -1.59587,1.58555 -8.39794,-4.12969 -15.14701,9.15823 -6.89258,13.57051 5.75838,3.07804 11.66304,0.18598 11.66304,-5.71249 0,-2.80292 0.51274,-3.37126 3.04242,-3.37126 4.41242,0 7.34209,-3.12666 6.35899,-6.78749 -1.07424,-4.00025 -2.32431,-5.01529 -6.17052,-5.01529 z m 28.01577,0.6657 c -2.10632,0.0915 -4.27748,0.93186 -6.18275,2.5054 -1.03389,0.85385 -4.13554,1.72004 -6.89257,1.92514 -4.18812,0.31155 -5.08286,0.82528 -5.43624,3.12164 -0.51369,3.33822 1.51543,4.66902 7.31604,4.79937 2.41239,0.0543 5.51405,0.54422 6.89256,1.08852 9.7425,3.84673 17.55273,-5.01809 10.0941,-11.45644 -1.64415,-1.41925 -3.68481,-2.07518 -5.79114,-1.98363 z m 68.44357,3.07665 c -4.59424,0 -6.33869,1.37617 -7.59995,5.9936 -0.66198,2.42345 -0.14947,3.74444 2.34729,6.03858 3.69174,3.39214 8.92941,3.83033 12.29698,1.03005 5.13117,-4.26678 0.38777,-13.06223 -7.04432,-13.06223 z m -238.50367,1.15149 c -0.91184,0 -3.03662,1.26537 -4.72151,2.81351 -3.24627,2.98282 -3.0948,5.78346 0.45771,8.41352 4.13664,3.06252 11.49171,-0.0695 11.49171,-4.89383 0,-2.75332 -4.08541,-6.3332 -7.22791,-6.3332 z m 255.23334,0.27888 c -0.82738,-0.11423 -1.71835,0.12245 -3.01061,0.66346 -1.72036,0.72022 -3.1281,1.81407 -3.1281,2.43118 0,2.65976 3.01982,6.85754 5.47784,7.61287 l 2.66794,0.82089 -2.64346,0.48803 c -5.93931,1.09761 -6.90676,8.83052 -1.74272,13.9236 4.78424,4.71854 13.78515,2.14585 13.78515,-3.94026 0,-1.48332 -1.9973,-4.72842 -4.43759,-7.21031 -2.6284,-2.67322 -3.90541,-4.81503 -3.13299,-5.25367 2.16156,-1.2275 1.47014,-5.86603 -1.20669,-8.09194 -1.03758,-0.86279 -1.80138,-1.32958 -2.62877,-1.44385 z m 16.09328,1.34715 c -3.54245,-0.10168 -7.19363,2.36307 -7.19363,6.42315 0,2.51582 0.87529,3.81138 3.38999,5.02204 6.36443,3.06404 12.60404,-2.52181 9.24966,-8.28084 -1.23363,-2.11799 -3.32056,-3.10337 -5.44602,-3.16435 z m -254.86863,1.82844 c -7.25449,0 -10.78982,8.93027 -5.47049,13.8179 5.91016,5.43053 16.12272,0.16881 14.49252,-7.46671 -0.92795,-4.34621 -3.77634,-6.35119 -9.02203,-6.35119 z m 289.59341,0 c -2.98495,0 -9.33336,3.34096 -9.35492,4.92308 -0.0416,3.05433 -2.10512,4.59985 -4.49876,3.369 -4.65759,-2.39498 -8.21573,1.85117 -5.99919,7.1586 1.00099,2.39683 9.06349,2.48944 10.05493,0.11468 0.52913,-1.26699 1.30356,-1.41518 3.0106,-0.57574 3.49463,1.71849 8.89051,1.35249 11.45011,-0.7759 4.68876,-3.89891 1.30497,-14.21373 -4.66277,-14.21373 z m -318.05465,2.30299 c -4.38858,0 -7.65572,3.77909 -5.88905,6.81223 2.54269,4.36549 8.82867,1.94626 8.82867,-3.39824 0,-2.81374 -0.51755,-3.41399 -2.93962,-3.41399 z m 109.05493,0.99856 c -2.60271,-0.0424 -5.0253,0.88559 -6.11177,3.07663 -1.88602,3.8034 -0.0791,8.65801 3.89909,10.48037 5.12195,2.34632 11.39136,-1.29136 11.39136,-6.60982 0,-4.11019 -4.84085,-6.87656 -9.17868,-6.94718 z m 51.04079,2.15454 c -7.68558,1.26779 -10.48227,7.25622 -5.51945,11.81629 3.6061,3.31343 9.26359,2.97887 12.44139,-0.73319 3.33974,-3.90121 3.27198,-5.66123 -0.34266,-8.98252 -2.194,-2.0159 -3.86224,-2.54878 -6.57928,-2.10058 z m -115.35029,0.54201 c -0.98182,-0.0971 -1.90408,0.0302 -2.63366,0.4498 -2.68229,1.5428 -3.56708,6.89287 -1.5151,9.1647 3.16963,3.50922 11.68561,0.0491 10.97526,-4.45977 -0.40132,-2.54718 -3.88103,-4.86349 -6.8265,-5.15473 z m 153.43078,0.4543 c -7.23944,-1.12406 -13.04088,7.70386 -7.57056,11.51941 5.00521,3.49115 15.35164,0.38809 15.35164,-4.60372 0,-2.65079 -4.16724,-6.35459 -7.78108,-6.91569 z m 39.05222,2.19953 c -0.93656,0.0428 -1.92545,0.21072 -2.95187,0.52176 -6.66583,2.02139 -9.08933,8.9359 -4.22953,12.06369 4.63297,2.98168 10.43076,2.30522 13.43024,-1.56533 4.26694,-5.50602 0.30702,-11.32024 -6.24884,-11.02012 z m 54.5189,0.0248 c -0.24617,-0.0491 -0.8154,0.22161 -1.80881,0.79164 -1.92051,1.10206 -2.09779,1.70697 -0.89339,3.04966 1.29569,1.44445 1.09912,1.47869 -1.42453,0.2429 -3.30389,-1.61786 -5.51325,-0.61109 -2.67528,1.21895 1.44382,0.93104 1.23176,1.06546 -0.97661,0.62075 -2.25888,-0.45491 -2.81969,-0.0629 -2.81969,1.97237 0,1.39734 0.67575,3.16228 1.50285,3.92226 2.14804,1.97371 6.01632,1.70753 6.01632,-0.41381 0,-0.98736 0.50399,-1.50864 1.12102,-1.15824 0.61703,0.35039 1.46982,-0.19313 1.89449,-1.20997 0.55984,-1.34054 0.23338,-1.6591 -1.18713,-1.15824 -1.07749,0.37991 -1.63737,0.21018 -1.24339,-0.37558 0.77105,-1.14627 5.68099,-1.17642 5.68099,-0.0314 0,0.37913 -1.14997,1.82308 -2.55534,3.20933 -1.40538,1.38606 -2.03911,2.52113 -1.4074,2.52113 1.87538,0 4.28718,-3.29608 4.65297,-6.35794 0.18758,-1.57006 -0.15427,-2.85398 -0.76121,-2.85398 -0.60697,0 -0.93209,-0.64772 -0.72206,-1.43936 0.21003,-0.79165 0.14468,-1.05074 -0.14442,-0.57575 -0.98607,1.6201 -3.09334,0.8682 -2.37665,-0.84788 0.29611,-0.70904 0.37345,-1.07767 0.12727,-1.12675 z m -163.63747,0.0158 c -3.65702,-0.2594 -7.04281,1.61873 -8.62062,5.11873 -1.69488,3.75974 -0.40085,6.87179 4.04597,9.7337 1.52656,0.98245 3.65218,1.78797 4.72396,1.78797 3.17298,0 7.17225,-3.18169 8.05276,-6.40518 1.19006,-4.35673 -0.19388,-7.19211 -4.51101,-9.24342 -1.222,-0.58062 -2.47205,-0.90534 -3.69106,-0.9918 z m 49.46696,2.37495 c -4.06194,0.6768 -7.56679,3.24086 -8.62795,6.31297 -0.75714,2.1919 1.28068,6.75552 3.67147,8.22235 0.75839,0.4653 3.07228,0.84563 5.14005,0.84563 4.4551,0 6.02205,-0.82961 7.9573,-4.20789 2.14943,-3.75217 1.76944,-5.92409 -1.57383,-8.99603 -2.24055,-2.05871 -3.92572,-2.61712 -6.56704,-2.17703 z m -164.2861,0.54651 c -2.17132,0.0359 -4.3852,0.83984 -6.19744,2.40419 -4.04857,3.49477 -3.77288,8.13169 0.69023,11.58237 3.23295,2.49959 3.4172,2.99857 1.8284,4.99504 -0.97084,1.21995 -1.60159,3.51442 -1.40006,5.09851 0.32169,2.52821 0.94082,2.86359 5.06663,2.74828 2.7695,-0.0774 4.69949,0.40832 4.69949,1.18299 0,0.72297 0.8778,2.46748 1.95077,3.87503 2.39164,3.13744 9.87137,3.5037 13.30052,0.65221 3.2611,-2.71174 2.89747,-8.00696 -0.78325,-11.38898 -3.4552,-3.17478 -6.14601,-3.47136 -10.65706,-1.17622 -2.79156,1.42031 -3.21412,1.33546 -4.47674,-0.9041 -1.15163,-2.0427 -0.88844,-3.03894 1.51508,-5.72823 3.57216,-3.99683 3.72132,-8.08886 0.40387,-11.13707 -1.64038,-1.50726 -3.76912,-2.23994 -5.94044,-2.20402 z m -20.83438,1.39212 c -1.63045,0.12139 -3.18347,0.70085 -4.42535,1.84195 -3.21358,2.95279 -3.59801,10.58835 -0.6682,13.28038 4.7787,4.39088 15.57683,-0.21562 15.57683,-6.64582 0,-5.08097 -5.5919,-8.84062 -10.48328,-8.47651 z m 63.421,2.33898 c -1.20429,-0.0337 -2.47494,0.16975 -3.78407,0.66795 -7.25251,2.7603 -7.98252,11.25725 -1.33397,15.53614 3.55918,2.2906 5.21808,2.30806 9.87136,0.0944 8.78724,-4.17527 3.67659,-16.06203 -4.75332,-16.29855 z m 197.27547,0.71069 c -1.79881,-0.0568 -3.63693,0.50805 -5.19144,1.93639 -3.04724,2.79994 -2.00241,8.68089 1.85776,10.45564 3.56739,1.64013 7.41896,0.95561 9.71226,-1.72499 4.05731,-4.74253 -0.98201,-10.49689 -6.37858,-10.66704 z m -106.9328,0.19341 c -1.72717,-0.13351 -3.4438,0.4973 -5.21594,1.88691 -4.48488,3.5168 -3.73224,10.44405 1.38047,12.71139 4.04848,1.79536 5.21233,1.66392 8.88986,-0.99406 4.17861,-3.02015 4.26436,-7.19633 0.22518,-10.90768 -1.81407,-1.66685 -3.55241,-2.56306 -5.27957,-2.69656 z m 65.89067,0.49704 c -0.86765,-0.0369 -1.77442,0.0905 -2.69975,0.4138 -6.1115,2.13501 -7.50485,8.89225 -2.73649,13.27364 2.73454,2.51262 7.56605,2.25542 10.63504,-0.5645 5.01815,-4.61091 0.87468,-12.86413 -5.1988,-13.12294 z m 71.48844,0.66345 c 0.5217,0.18456 1.17722,0.59328 1.84063,1.18072 1.32675,1.17488 1.89073,2.12777 1.25319,2.11856 -2.04308,-0.0311 -4.61302,-1.98275 -4.13163,-3.13736 0.12816,-0.3074 0.51609,-0.3465 1.03781,-0.16192 z m -244.5567,0.85687 c -4.26093,-0.66083 -9.7857,2.31661 -9.7857,6.58508 0,1.45535 1.46538,3.67444 3.30188,5.0018 3.99025,2.884 6.40509,3.00746 9.44302,0.48129 2.68724,-2.23455 2.99315,-7.13858 0.62904,-10.10929 -0.88794,-1.11579 -2.16793,-1.73861 -3.58824,-1.95888 z m 265.31519,0.54651 c -1.19091,0.007 -2.4846,0.28993 -3.82813,0.88161 -4.99004,2.19755 -6.67178,6.83491 -3.8942,10.73 1.58871,2.22793 3.17984,2.96869 6.38347,2.96869 5.73183,0 8.43693,-2.6786 7.95975,-7.88052 -0.38854,-4.23544 -3.04815,-6.72015 -6.62089,-6.69978 z m 15.01387,0.18666 c -2.93912,0 -3.95932,0.6741 -4.95893,3.2858 -1.0828,2.82905 -0.84786,3.59126 1.67664,5.46957 3.67591,2.73501 4.24158,2.7228 7.07614,-0.15516 3.47757,-3.53081 1.2411,-8.60021 -3.79385,-8.60021 z m -208.16263,0.88611 c -1.49218,0.17955 -2.93251,0.77612 -4.12429,1.87118 -1.45031,1.33261 -2.6361,3.23425 -2.6361,4.22587 0,2.21642 2.39465,6.53659 4.25891,7.68036 4.43208,2.7192 12.07054,-1.3023 11.99346,-6.3152 -0.0736,-4.78322 -5.01545,-8.00087 -9.49198,-7.46221 z m 52.3356,4.9613 c -1.84697,-0.29292 -3.67742,0.28222 -5.63937,1.70026 -8.76985,6.33852 1.02573,17.85227 10.17731,11.96247 1.97787,-1.27293 2.78544,-1.38419 2.78544,-0.38009 0,0.7777 0.93243,2.36155 2.07315,3.51969 4.44245,4.51047 12.96518,1.08417 12.96518,-5.21319 0,-1.90081 0.35494,-1.78907 2.59695,0.82989 6.69443,7.8199 18.74941,0.19732 13.61871,-8.61146 -3.27699,-5.62617 -13.99745,-4.38146 -15.69186,1.82169 -0.76109,2.78634 -0.77759,2.78972 -3.38755,0.55551 -2.96104,-2.53475 -4.9802,-2.78301 -8.51291,-1.04579 -1.97266,0.97005 -2.97478,0.65665 -5.24286,-1.63502 -2.03006,-2.05117 -3.8952,-3.21101 -5.74219,-3.50396 z m 122.10824,0.50154 c -4.59902,0.021 -6.13222,0.83315 -8.11395,4.2911 -1.17982,2.05869 -1.09547,3.26308 0.42099,5.95762 1.04545,1.85759 2.89649,3.61523 4.11206,3.90652 3.73497,0.89503 4.10015,0.85031 7.91078,-0.96032 2.90552,-1.38057 3.69841,-2.53099 3.69841,-5.37738 0,-4.74643 -3.17658,-7.83965 -8.02829,-7.81754 z m -55.21892,0.0742 c -2.25906,-0.0641 -4.4113,0.35593 -5.42889,1.29093 -1.9909,1.82933 -2.04398,9.42444 -0.0563,8.29659 0.94201,-0.53493 1.10362,-0.3129 0.46505,0.63647 -0.57135,0.84943 -0.25954,1.87713 0.74653,2.46266 2.63624,1.53426 7.68921,1.30062 6.60865,-0.30586 -0.60092,-0.89341 -0.23544,-1.11165 1.08676,-0.64547 4.63195,1.6332 6.92848,-7.14021 2.64835,-10.11827 -1.44423,-1.00489 -3.81111,-1.55292 -6.07016,-1.61705 z m -160.8545,1.23246 c -0.50052,-0.12635 -0.97658,0.0887 -1.55672,0.61398 -0.82724,0.74908 -1.16348,2.17405 -0.74896,3.1666 0.80597,1.92985 4.01109,2.44701 5.10334,0.82313 0.36323,-0.54002 -0.12869,-1.96498 -1.09411,-3.1666 -0.67702,-0.84271 -1.20304,-1.31075 -1.70355,-1.43711 z m 197.38564,0.93784 c -2.41039,0.24025 -4.86213,1.74813 -6.54012,4.72966 -2.47182,4.39205 -2.33763,5.31654 1.24341,8.60694 5.89181,5.41367 13.21484,2.67624 13.21484,-4.9388 0,-5.6788 -3.90086,-8.79821 -7.91813,-8.3978 z m -137.21512,0.13268 c -3.30924,-0.24767 -6.57205,1.07633 -7.83248,4.12244 -1.50608,3.63983 -0.60305,6.63204 2.91514,9.64374 3.78963,3.24405 7.71091,2.81439 11.43542,-1.25269 2.97053,-3.24378 3.09542,-3.80217 1.58852,-7.19683 -1.44194,-3.24838 -4.79735,-5.06897 -8.1066,-5.31666 z m -131.76177,2.21304 c -2.22732,0 -6.32716,4.47721 -6.32716,6.90894 0,1.26665 1.12787,3.33933 2.5064,4.60597 4.99288,4.58768 12.53194,1.33358 12.53194,-5.40887 0,-2.4394 -5.23172,-6.10604 -8.71118,-6.10604 z m 250.32581,0.39132 c -3.41262,-0.26928 -6.53904,1.32601 -8.4811,4.51601 -1.71578,2.81832 -1.71836,3.4811 -0.022,6.27023 1.04425,1.71533 3.3,3.44737 5.01278,3.84805 9.59566,2.24475 15.73811,-9.86825 6.96356,-13.73243 -1.16793,-0.51436 -2.33567,-0.81211 -3.47321,-0.90186 z m 68.21838,0.8029 c -2.48004,0.10133 -5.0483,0.87152 -6.55969,2.26025 -3.20219,2.94232 -3.17873,5.81514 0.0906,9.63024 3.16611,3.69841 8.57002,4.02682 11.82949,0.71743 2.65329,-2.69391 2.99511,-8.28378 0.66576,-10.8627 -1.15589,-1.27973 -3.54609,-1.84657 -6.02611,-1.74522 z m -249.30512,2.30298 c -2.44899,-0.0376 -5.07901,0.34046 -6.7237,1.14923 -3.34789,1.64634 -3.17342,7.28904 0.3182,10.27798 5.39399,4.61744 13.55017,1.62423 13.55017,-4.97256 0,-2.05405 -0.67818,-4.3565 -1.5053,-5.11649 -0.92312,-0.84821 -3.19041,-1.30058 -5.63937,-1.33816 z m 80.65487,1.10875 c -7.32307,0 -11.54974,7.77249 -7.07126,13.00376 5.27253,6.15895 16.27197,3.14532 16.27197,-4.45753 0,-3.41858 -5.52133,-8.54623 -9.20071,-8.54623 z m 64.21404,0.15745 c -2.42152,0.16381 -4.76178,1.34544 -6.5132,3.51069 -2.16811,2.68034 -2.29778,3.5455 -0.97416,6.48163 0.84012,1.86364 2.75469,3.93412 4.25645,4.60147 3.558,1.58056 3.82744,1.58412 7.94996,0.14394 6.35547,-2.22028 7.34384,-7.48838 2.27876,-12.14239 -2.07474,-1.90637 -4.57632,-2.75917 -6.99781,-2.59534 z m -166.61627,0.23389 c -8.5495,-0.12772 -13.19766,10.74887 -4.74599,16.18834 3.5534,2.28689 5.21736,2.30146 9.8322,0.11251 2.55382,-1.21344 3.88068,-2.89638 4.44003,-5.63601 1.00367,-4.91586 -0.77938,-8.03227 -5.65161,-9.88664 -1.35385,-0.51526 -2.65326,-0.7599 -3.87463,-0.77815 z m 1021.07539,1.3359 c -0.01,0.0674 -0.016,0.13503 -0.027,0.20242 0.01,-2.4e-4 0.01,1.8e-4 0.013,0 0,-0.0489 0.011,-0.15391 0.015,-0.20242 z m -953.25352,1.06604 c -4.67213,0.86355 -6.35351,8.38696 -1.6081,11.86126 2.11289,1.54693 7.84411,0.74861 9.34021,-1.30218 2.68745,-3.68385 -0.27201,-9.273 -5.55615,-10.49163 -0.77947,-0.17975 -1.50851,-0.19007 -2.17596,-0.0675 z m 185.81315,0.0607 c -2.36377,0.23764 -4.6323,1.37839 -6.08974,3.2903 -2.6498,3.47609 -2.2935,6.21847 1.22627,9.45258 1.69181,1.55451 4.22953,2.8245 5.63938,2.82475 7.0439,0 10.48868,-10.85785 4.57465,-14.41839 -0.92313,-0.55577 -1.93801,-0.91274 -2.98124,-1.08177 -0.78242,-0.12677 -1.58139,-0.14668 -2.36932,-0.0675 z m -220.50366,4.03472 c -1.66832,0.25204 -3.25733,1.37591 -4.06555,3.50619 -0.72764,1.91781 -1.00364,4.24958 -0.61435,5.18172 1.57085,3.76133 10.46614,0.95919 10.46614,-3.29705 0,-3.80822 -3.0057,-5.81092 -5.78624,-5.39086 z m 203.4044,0.0989 c -2.48517,-0.28617 -5.10628,0.36478 -7.13245,2.22651 -1.39243,1.27943 -2.50638,3.8383 -2.50638,5.75746 0,1.91915 1.11395,4.47803 2.50638,5.75746 5.32416,4.89207 15.03834,1.14387 15.03834,-5.80244 0,-4.38569 -3.76396,-7.46201 -7.90589,-7.93899 z m -270.01224,0.43855 c -5.6979,-0.38369 -9.14722,5.00147 -4.58933,9.18945 1.08312,0.99521 3.01047,1.81044 4.28338,1.81044 4.71049,0 6.28067,-1.3335 6.28067,-5.33464 0,-3.22385 -0.61803,-4.15161 -3.41203,-5.12773 -0.88899,-0.31057 -1.7487,-0.4827 -2.56269,-0.53752 z m 181.74029,0.94459 c -2.53742,0.33068 -4.89063,1.99513 -6.02857,5.2087 l -1.32662,3.74009 -3.01796,-2.95519 c -4.0256,-3.93731 -8.4641,-3.39944 -12.01059,1.45286 -2.30805,3.15786 -2.95343,3.46804 -4.23934,2.04435 -0.83425,-0.92362 -3.46574,-2.01388 -5.84741,-2.42444 -9.93224,-1.71202 -14.36816,9.90141 -5.80094,15.18754 3.97298,2.4514 3.99476,2.5148 1.56649,4.534 -3.17508,2.64017 -3.15669,7.96517 0.0441,10.90318 3.2022,2.94231 6.3312,2.914 10.48326,-0.0854 1.81609,-1.31262 3.30189,-1.83078 3.30189,-1.1515 0,0.67928 1.15959,2.30246 2.57737,3.60515 4.10452,3.77143 11.0537,2.69979 14.14496,-2.18152 2.30879,-3.64575 2.32612,-4.05056 0.35245,-7.85354 -1.14431,-2.20501 -1.62776,-3.75291 -1.07451,-3.43873 0.55325,0.31419 1.00598,-0.38717 1.00598,-1.5608 0,-1.17366 -0.44238,-1.8841 -0.98396,-1.57656 -0.54156,0.30753 -0.98395,0.12212 -0.98395,-0.41381 0,-2.73895 -5.74375,-0.88932 -10.40496,3.35101 -3.39713,3.09037 -5.34195,4.17077 -5.70545,3.16886 -0.30335,-0.83619 -1.85386,-2.71546 -3.44386,-4.17641 -1.71129,-1.57241 -2.22784,-2.65608 -1.26787,-2.65608 1.89625,0 4.53059,-4.81036 4.53059,-8.27184 0,-2.23517 0.18206,-2.19112 2.59696,0.62971 1.61549,1.8871 3.8292,3.03616 5.85478,3.03616 3.69817,0 7.79033,-2.91369 7.93771,-5.6495 0.084,-1.55885 0.20394,-1.57771 0.79059,-0.1079 3.85381,9.63042 17.25069,6.44257 16.39925,-3.90203 -0.48194,-5.85498 -5.22155,-9.00742 -9.45036,-8.45626 z m 38.6826,0.84337 c -8.75172,0 -10.58295,13.03215 -2.26407,16.11189 3.6837,1.36375 4.02746,1.357 7.60729,-0.14169 4.14619,-1.73583 6.27891,-6.56013 4.64564,-10.50736 -1.49699,-3.61781 -4.87149,-5.46284 -9.98886,-5.46284 z m -101.15391,2.53239 c -6.36368,0.13659 -11.41408,7.51279 -5.4705,13.37483 3.63518,3.58524 10.2983,3.42277 12.96519,-0.31711 2.84254,-3.98617 2.52158,-7.17388 -1.0525,-10.45788 -2.05444,-1.88772 -4.32097,-2.64537 -6.44219,-2.59984 z m 185.22815,1.36289 c -1.97195,-0.3309 -4.17291,0.0732 -6.32471,1.54507 -1.83545,1.2555 -3.88963,3.70873 -4.56487,5.45159 -1.06849,2.75795 -0.77397,3.52725 2.26407,5.92838 4.00148,3.16259 9.77752,3.59696 12.6568,0.95134 5.73679,-5.27121 1.88464,-12.88364 -4.03129,-13.87638 z m 749.16874,0.35535 c -0.051,0.0288 -0.096,0.059 -0.1469,0.0878 0.047,-0.006 0.093,-0.012 0.1394,-0.018 0,-0.0283 0.01,-0.0414 0.01,-0.0697 z m -816.4619,0.90409 c -0.2103,0.0807 -0.21545,0.29212 -0.008,0.61848 0.42109,0.62607 1.29729,1.13788 1.94587,1.13799 1.80263,0 1.40494,-0.82453 -0.76612,-1.59003 -0.55759,-0.19662 -0.96212,-0.24713 -1.17241,-0.16644 z m -220.90998,0.60724 c -7.11503,0 -10.13376,4.94628 -5.73973,9.40759 4.19658,4.26082 11.57426,1.55339 11.67284,-4.28434 0.0526,-3.11585 -2.27307,-5.12325 -5.93311,-5.12325 z m 36.31085,0.54201 v 0.003 c -0.97461,-0.20701 -1.91872,-0.21248 -2.74871,0.0269 -7.12725,2.07852 -9.61805,9.33997 -4.81451,14.0383 3.61217,3.53292 9.04991,3.46483 12.997,-0.16194 3.43078,-3.15233 3.59306,-3.83671 1.87979,-7.97721 -1.19391,-2.88542 -4.38971,-5.30737 -7.31357,-5.92838 z m 148.50613,1.67102 c -2.72684,0.16252 -5.44203,1.22645 -7.06637,3.12385 -1.42854,1.66872 -2.59695,3.93071 -2.59695,5.02654 0,1.09583 1.16841,3.35557 2.59695,5.02429 3.30456,3.86012 10.85617,4.24851 14.31629,0.73542 2.81047,-2.85346 2.75585,-8.72503 -0.11016,-11.63412 -1.6751,-1.70074 -4.41295,-2.43851 -7.13978,-2.27598 z m -128.73892,0.0878 c -3.85009,0 -8.75034,4.51453 -8.75034,8.06044 0,1.09583 1.1684,3.35558 2.59694,5.02429 4.70314,5.49382 16.201,2.808 16.201,-3.78507 0,-3.7171 -6.03248,-9.29966 -10.0476,-9.29966 z m 61.42861,1.15149 c -2.9953,0 -4.1416,1.68797 -3.13055,4.61496 0.43556,1.26099 1.84493,2.29399 3.13055,2.29399 2.44323,0 4.48849,-3.74411 3.14032,-5.74846 -0.42979,-0.63899 -1.84316,-1.16049 -3.14032,-1.16049 z m -32.25756,0.66121 c -4.18068,0.80174 -7.32793,8.56676 -3.83546,11.7758 2.33607,2.14648 9.34088,1.72464 10.48327,-0.63197 2.63498,-5.43559 1.02722,-9.1229 -4.80962,-11.02687 -0.6231,-0.20326 -1.24094,-0.23149 -1.83819,-0.11696 z m -69.4838,0.64322 c -1.7834,0.0911 -3.60674,1.02683 -5.93801,2.82926 -5.73898,4.43721 -4.9698,10.49268 1.78435,14.05178 3.68331,1.94095 5.03242,1.71026 9.30105,-1.59006 5.10802,-3.9493 5.34921,-9.59085 0.55562,-13.05547 -2.17535,-1.57226 -3.91962,-2.3266 -5.70301,-2.23551 z m 250.15445,1.00081 c -8.52981,0 -12.1936,7.81583 -6.2317,13.29387 3.39689,3.12122 5.73826,3.48173 9.84932,1.51808 3.60701,-1.72288 3.28992,-1.3454 4.55753,-5.4066 1.57653,-5.05092 -2.20888,-9.40535 -8.17515,-9.40535 z m -23.73973,1.44611 c -6.15904,0.42865 -10.81299,8.88345 -6.14115,13.62673 1.39913,1.42054 3.83243,2.19727 6.89258,2.19727 11.25265,0 12.76112,-11.94611 1.95568,-15.48215 -0.91855,-0.3006 -1.82724,-0.40308 -2.70711,-0.34185 z m -39.4365,5.46058 c -9.16855,0 -13.15763,9.90638 -6.14359,15.25726 5.70278,4.35054 14.89639,0.36914 14.89639,-6.45015 0,-5.75926 -3.03038,-8.80711 -8.7528,-8.80711 z m 20.12211,0 c -7.46884,0 -10.37649,9.31498 -3.85014,12.33356 3.63471,1.68111 3.50567,1.66723 7.25482,0.74442 3.845,-0.94638 7.03477,-6.6082 5.35057,-9.4998 -1.484,-2.54782 -4.00878,-3.57818 -8.75525,-3.57818 z m -109.20913,1.1515 c -4.40454,0 -8.6818,3.58673 -8.6818,7.28227 0,2.9614 4.25621,7.14865 8.14577,8.01322 1.37852,0.30641 2.92936,0.61699 3.44629,0.69044 1.9397,0.27567 5.95268,-4.57412 5.95268,-7.19457 0,-4.24543 -4.58279,-8.79136 -8.86294,-8.79136 z m 174.28475,1.15148 c -2.48807,0 -6.26598,2.87176 -6.26598,4.7634 0,1.66223 2.65205,6.03554 4.25891,7.0214 3.99007,2.44801 8.27304,-0.15264 8.27304,-5.02428 0,-3.62994 -2.90175,-6.76052 -6.26597,-6.76052 z m -214.60239,0.43185 c -1.01692,-0.16392 -2.01959,-0.14423 -2.97146,0.0765 -2.98969,0.68947 -3.22792,1.14511 -2.56268,4.91183 0.40337,2.2839 2.20654,5.56461 4.00925,7.29352 3.79771,3.64227 7.2367,3.38213 10.2018,-0.77591 1.76246,-2.47149 1.7511,-2.9902 -0.0979,-5.58652 -2.34604,-3.28994 -5.52824,-5.42538 -8.579,-5.91714 z m 23.50475,0.24066 c -2.15604,-0.13781 -4.40086,0.96601 -4.40086,2.5841 0,1.01065 -1.40869,2.89271 -3.13055,4.18315 -4.45215,3.33662 -5.38824,8.91418 -2.0144,12.0142 5.85619,5.38094 16.20039,0.96565 14.55126,-6.21176 -0.43656,-1.89997 -0.89944,-5.15692 -1.028,-7.2373 -0.12857,-2.08036 -1.00068,-4.22077 -1.93855,-4.7544 -0.61271,-0.34862 -1.3202,-0.53206 -2.0389,-0.57799 z m 75.05713,0.47903 c -10.23652,0 -10.65168,13.42526 -0.50667,16.37277 4.83346,1.40429 11.27875,-3.02429 11.27875,-7.75007 0,-3.08149 -6.92336,-8.6227 -10.77208,-8.6227 z m -128.38891,0.53976 c -3.07613,0.27783 -6.04661,1.76538 -6.9709,4.28661 -3.08253,8.40833 5.25477,14.49584 13.01414,9.50205 2.62851,-1.69167 2.78542,-1.64971 2.78542,0.77142 0,1.41102 0.93245,3.51299 2.07316,4.67119 2.57183,2.61121 8.70008,2.73595 11.42561,0.23164 2.5332,-2.32762 2.67793,-9.4137 0.22274,-10.87845 -4.27798,-2.55221 -7.58485,-2.50787 -10.6595,0.14619 l -3.06201,2.64483 v -3.15535 c 0,-1.73533 -0.5503,-4.09705 -1.22137,-5.24919 -1.34892,-2.31593 -4.53115,-3.24877 -7.60729,-2.97094 z m 231.84117,2.91697 c -3.03795,0 -8.71608,4.87575 -8.71608,7.48469 0,1.00756 1.38488,3.10319 3.07669,4.6577 3.55632,3.26771 6.50431,3.56067 10.42943,1.03454 5.43198,-3.49594 1.91301,-13.17693 -4.79004,-13.17693 z m -248.57575,1.07502 c -2.40181,-0.14949 -4.79885,0.63511 -6.32227,2.63359 -2.67643,3.51105 -2.4585,5.14026 1.12592,8.43378 1.69183,1.5545 4.22954,2.827 5.63939,2.827 3.15432,0 7.57546,-3.88497 7.57546,-6.65482 0,-4.14628 -4.01547,-6.99043 -8.0185,-7.23955 z m 230.14741,1.24594 c -4.14726,0.0212 -5.74317,0.90337 -7.64645,4.22589 -2.04282,3.56605 -1.80171,5.32883 1.11612,8.20663 5.06921,4.99956 14.9894,1.71496 14.9894,-4.96357 0,-3.80967 -4.16815,-7.49093 -8.45907,-7.46895 z m -20.18821,3.44549 c -1.73089,0 -4.45287,1.1261 -6.04813,2.50314 -5.10916,4.41027 -2.98095,11.22707 3.99211,12.78786 1.37852,0.30862 2.95431,0.62147 3.50259,0.69494 1.9824,0.26562 7.14958,-5.57902 7.14958,-8.08743 0,-3.5155 -4.77019,-7.89851 -8.59615,-7.89851 z m -21.02772,1.15149 c -7.69657,0 -12.03833,8.93008 -6.71881,13.8179 1.55159,1.42566 4.17732,2.30298 6.89258,2.30298 5.14556,0 9.39897,-3.31276 9.39897,-7.31827 0,-3.83812 -5.40009,-8.80261 -9.57274,-8.80261 z m -26.46641,2.30298 c -3.74408,0 -9.07589,4.07022 -9.07589,6.92919 0,2.05677 3.18131,5.08959 6.26598,5.97336 4.99768,1.43191 10.02556,-1.60437 10.02556,-6.05432 0,-4.04883 -2.95142,-6.84823 -7.21565,-6.84823 z m 844.05905,1.93639 c -0.1853,0.0641 -0.3702,0.12947 -0.5556,0.19342 0.083,0.44913 0.1514,0.90042 0.2349,1.3494 0.1155,-0.51265 0.2085,-1.02955 0.3207,-1.54282 z m -924.68701,0.0472 c -3.00857,0.44388 -6.43818,2.11148 -7.50204,3.938 -1.69593,2.91171 0.68113,9.8449 3.62006,10.55684 6.95197,1.68407 11.52108,-0.52846 11.52108,-5.5798 0,-3.87209 -2.49268,-8.42767 -4.87572,-8.9128 -0.80577,-0.16403 -1.76054,-0.14671 -2.76338,-0.003 z m 181.69132,0.44304 c -1.24261,-0.12361 -2.65518,0.0383 -4.14143,0.56225 -1.96927,0.69435 -2.79088,6.23601 -1.14796,7.74558 1.86684,1.71535 7.88289,0.71192 9.19093,-1.53382 2.01476,-3.4591 -0.17374,-6.40319 -3.90154,-6.77401 z m -164.98858,1.30892 c -1.08054,0.0413 -2.00354,0.47057 -3.39978,1.31118 -3.74518,2.25477 -4.29169,7.91068 -1.16018,12.01868 1.55921,2.04544 2.98103,2.5452 6.45688,2.27151 9.87467,-0.77754 11.65303,-11.36866 2.4501,-14.58706 -2.02917,-0.70963 -3.26648,-1.05562 -4.34702,-1.01431 z m -51.873,0.37334 c -1.84841,0.29541 -3.71466,1.45834 -5.75196,3.51745 -3.64492,3.68394 -3.5678,6.74558 0.257,10.25996 3.56935,3.27968 3.01178,3.1643 7.84227,1.61704 6.8292,-2.18746 8.66365,-9.81585 3.29453,-13.69645 -1.96417,-1.41962 -3.79341,-1.99341 -5.64184,-1.698 z m 92.73403,0.55101 c -2.44708,0.0443 -4.8371,1.0013 -6.8681,2.86748 -3.50049,3.2164 -3.32813,7.29834 0.46995,11.17082 4.59641,4.68648 14.25771,1.31466 16.15691,-5.63826 0.68151,-2.49496 0.18266,-3.63236 -2.5431,-5.78668 -2.2627,-1.78834 -4.76859,-2.65774 -7.21566,-2.61336 z m -126.36959,1.08401 c -6.14771,0 -8.77238,1.84204 -8.77238,6.1578 0,3.74309 4.31752,8.81323 8.77238,10.30268 3.36637,1.12552 5.59279,0.79487 8.27794,-1.23021 3.80121,-2.86675 4.50028,-5.69646 2.35219,-9.51329 -2.27478,-4.04193 -5.39142,-5.71698 -10.63013,-5.71698 z m 233.85801,1.10874 c -5.60072,-0.66448 -13.99124,3.06137 -12.56131,7.35425 0.45344,1.36132 1.38875,3.12386 2.07805,3.91551 0.6893,0.79165 3.53651,1.43936 6.32717,1.43936 8.04186,0 11.74724,-4.6265 8.36115,-10.43987 -0.77988,-1.33899 -2.33813,-2.04777 -4.20506,-2.26925 z m 782.24132,0.33735 c -0.4614,3.08056 -0.8784,6.16665 -1.334,9.24791 0.2521,-0.15195 0.5431,-0.23971 0.7808,-0.41157 0.2738,-0.19787 0.3686,-0.41053 0.607,-0.61173 0.044,-2.70017 0.032,-5.40089 0.09,-8.10092 -0.05,-0.041 -0.092,-0.0829 -0.1444,-0.12369 z m -909.76618,4.18315 c -2.88348,0.0513 -5.93314,1.04134 -8.01359,2.95294 -1.69183,1.55452 -3.07671,3.38601 -3.07671,4.06846 0,3.14648 3.93073,9.367 6.52299,10.32293 4.47537,1.65035 6.65841,1.39798 10.22626,-1.18073 3.87756,-2.80255 4.52971,-9.3085 1.35111,-13.47829 -1.40989,-1.84956 -4.12658,-2.73659 -7.01006,-2.68531 z m -56.07562,1.27968 c -4.88309,0 -10.15528,5.65056 -10.15528,10.88519 0,2.09049 -0.84591,4.44727 -1.87978,5.23569 -3.62305,2.76283 -1.51552,9.63911 3.52705,11.50591 1.50577,0.55746 3.16187,1.04606 3.67881,1.08627 2.09615,0.16279 5.95269,-4.72713 5.95269,-7.54766 0,-1.70757 1.63003,-4.72085 3.75958,-6.94944 4.43296,-4.6391 4.54039,-5.5382 1.26543,-10.47362 -1.89083,-2.8495 -3.35667,-3.74234 -6.1485,-3.74234 z m 155.89312,0 c -4.03537,0 -9.39896,4.75041 -9.39896,8.32583 0,3.90937 3.22531,7.50341 7.51183,8.36855 3.18248,0.64227 3.56057,1.0804 2.50395,2.89446 -2.80884,4.82243 -0.64437,9.91969 5.02256,11.83428 3.18722,1.07681 3.77525,0.90771 6.94887,-2.00837 1.69182,-1.55451 3.07669,-4.02989 3.07669,-5.50106 0,-3.98789 -3.43479,-7.79281 -7.03453,-7.79281 -2.98726,0 -3.04233,-0.11914 -1.18221,-2.55938 1.07295,-1.40752 1.95077,-3.76451 1.95077,-5.23567 0,-3.57542 -5.36359,-8.32583 -9.39897,-8.32583 z m -20.62387,1.08177 c -2.73157,-0.2394 -5.64839,0.94627 -8.08948,3.6119 -1.78441,1.94855 -3.24313,4.04601 -3.24313,4.6622 0,2.41454 3.84246,7.76802 5.93555,8.26959 6.69441,1.6042 10.55562,0.15667 12.78896,-4.79712 1.25369,-2.78108 1.18092,-3.98985 -0.40877,-6.81449 -1.70469,-3.02896 -4.25156,-4.69269 -6.98313,-4.93208 z m 62.38319,0.17093 c -2.60443,-0.21662 -5.40518,0.46176 -7.22546,2.1343 -3.24715,2.98362 -3.24149,4.73501 0.0195,8.54623 2.5831,3.01738 7.58741,4.00475 10.79658,2.12981 2.77964,-1.62402 4.05507,-6.60206 2.45254,-9.57178 -1.0305,-1.90966 -3.43881,-3.02196 -6.04324,-3.23856 z m -85.35192,0.003 c -0.4657,0.0694 -0.55433,0.84403 -0.24477,2.32098 0.41175,1.96454 0.0212,2.31063 -2.05112,1.81271 -1.84009,-0.44214 -2.36911,-0.16327 -1.88469,0.9963 0.37044,0.88701 -0.28859,2.12873 -1.46615,2.75953 -1.32045,0.70736 -1.52134,1.16133 -0.52133,1.18298 0.89178,0.0192 1.45571,0.91271 1.25319,1.98588 -0.21486,1.13851 0.93778,2.57151 2.76584,3.43873 4.07314,1.93229 4.11034,1.92646 7.97688,-0.86813 4.32074,-3.12291 4.3623,-7.81122 0.0979,-11.49016 -2.84965,-2.45984 -3.11407,-2.51313 -2.40359,-0.48804 0.74823,2.13264 0.68478,2.14915 -1.00844,0.26088 -1.20473,-1.34352 -2.04801,-1.98099 -2.51372,-1.91166 z m -18.82485,2.21528 c -4.75566,0.0209 -6.24339,0.81119 -8.30487,4.4058 -1.95908,3.41597 0.3046,9.13644 4.18793,10.57932 3.58932,1.3337 4.26009,1.31475 7.40168,-0.20465 3.56186,-1.72268 4.57568,-3.21454 4.59912,-6.76951 0.0307,-4.64922 -3.29748,-8.03123 -7.88386,-8.01096 z m 872.29273,2.4649 c -0.5827,0.0604 -1.1018,0.24726 -1.6302,0.41609 -0.6551,4.44819 -1.282,8.89999 -1.9214,13.35009 1.6428,1.19888 2.664,1.85666 3.4732,1.92739 0.022,-5.22904 0.097,-10.45804 0.1713,-15.68681 -0.029,0.003 -0.064,-0.009 -0.093,-0.007 z m -949.68,0.97383 c -0.72994,0 -0.97916,0.51817 -0.55317,1.15149 0.42598,0.63332 1.02267,1.15149 1.32662,1.15149 0.30395,0 0.55317,-0.51817 0.55317,-1.15149 0,-0.63332 -0.59669,-1.15149 -1.32662,-1.15149 z m -44.82867,0.12595 c -7.09965,0.84144 -10.99764,7.11771 -4.28583,12.16712 7.60525,5.72155 18.55978,1.64442 16.37722,-6.09481 -0.59515,-2.1103 -2.27078,-4.04785 -4.20016,-4.8556 -2.80375,-1.1738 -5.52468,-1.49718 -7.89123,-1.21671 z m 41.33343,0.6567 c -0.36282,0.0812 -0.11405,0.79155 1.0378,2.06684 0.87187,0.9653 2.07776,1.75647 2.68262,1.75647 0.60486,0 0.11454,-0.95073 -1.09164,-2.1118 -1.29224,-1.24391 -2.26597,-1.79266 -2.62878,-1.71151 z m 166.89284,1.52033 c -7.07283,0 -10.53568,9.1939 -5.18656,13.77292 1.50848,1.29132 4.04621,2.34796 5.63937,2.34796 3.90028,0 7.9108,-3.90218 7.9108,-7.69835 0,-3.87562 -4.51484,-8.42253 -8.36361,-8.42253 z m -143.41257,1.35583 c -1.68357,-0.26831 -3.47459,0.26166 -6.03834,1.47985 -6.23231,2.96131 -7.1262,10.51719 -1.78434,15.0661 4.04389,3.44359 10.41225,3.75745 13.45962,0.66345 1.17017,-1.18811 2.45623,-4.01345 2.8564,-6.27923 0.62203,-3.52208 0.17261,-4.62955 -3.09137,-7.62863 -2.14197,-1.96814 -3.71837,-3.03322 -5.40197,-3.30154 z m -81.26433,1.81269 c -0.89856,-0.15278 -1.70415,-0.17672 -2.27388,0.005 -2.69354,0.82498 -1.68542,5.7667 1.67176,8.19314 1.76714,1.27722 4.00261,2.04451 4.96627,1.70474 2.11858,-0.747 3.41497,-4.07197 2.46967,-6.33546 -0.59498,-1.42469 -4.13816,-3.10853 -6.83382,-3.56692 z m 122.19145,0.41383 c -2.58619,-0.20415 -5.36306,0.60972 -7.63421,2.69656 -3.82471,3.51431 -3.96701,8.24718 -0.35246,11.78254 5.70866,5.58338 16.0737,1.63099 16.0737,-6.12855 0,-4.83933 -3.77673,-8.01031 -8.08703,-8.35055 z m -63.95455,3.32595 c -8.59746,0 -12.46597,8.81602 -6.3394,14.44536 1.69182,1.55451 4.53646,2.82701 6.32227,2.82701 4.27358,0 9.39896,-4.79802 9.39896,-8.79811 0,-4.38619 -4.52663,-8.47426 -9.38183,-8.47426 z m 183.51971,0 c -2.71486,0 -8.71607,4.77201 -8.71607,6.93143 0,2.45128 2.68782,5.87084 5.40685,6.87747 4.06654,1.50548 5.28122,1.3673 7.46043,-0.85463 3.51833,-3.58725 3.93454,-7.87945 1.02558,-10.55234 -1.43826,-1.32152 -3.76694,-2.40193 -5.17679,-2.40193 z m -73.73048,1.88916 c -3.63985,-0.31568 -7.15738,1.38527 -9.28883,4.73866 -2.09503,3.29605 -2.12432,3.87937 -0.3598,7.01465 1.05857,1.88091 2.64119,3.6861 3.51726,4.00998 0.87607,0.32389 3.42623,0.62922 5.66631,0.6792 9.69209,0.21632 12.75706,-11.32816 4.09981,-15.44167 -1.19351,-0.56711 -2.42148,-0.89558 -3.63475,-1.00082 z m 735.66497,0.43407 c -0.4695,0.47776 -0.9436,0.9516 -1.4172,1.42585 0.03,0.31111 0.059,0.62227 0.089,0.93336 1.4145,-0.45883 2.8286,-0.91809 4.2441,-1.37416 0.3143,-0.27081 0.6768,-0.43036 0.9669,-0.74891 -1.2944,-0.0734 -2.5881,-0.15572 -3.882,-0.23614 z m -715.52572,0.39131 c -3.40656,-0.1243 -6.3907,1.54689 -7.93773,4.66669 -2.12985,4.29515 -0.34918,8.64013 4.29561,10.48487 6.35929,2.52567 11.44947,0.45202 12.80365,-5.2132 1.02957,-4.30709 -0.857,-7.37816 -5.65161,-9.20291 -1.19171,-0.4536 -2.37442,-0.69402 -3.50992,-0.73545 z m -45.72941,1.33141 c -3.46232,0.63916 -7.18284,3.17825 -7.93282,5.92389 -1.13715,4.16306 0.8485,8.69751 4.56731,10.4264 4.03047,1.87378 5.61126,1.84047 9.91541,-0.20465 8.10805,-3.85258 6.13982,-13.46337 -3.29452,-16.08941 -0.97693,-0.27192 -2.10128,-0.27152 -3.25538,-0.0562 z m -128.61408,4.01448 c -7.92334,0 -10.88208,9.62168 -4.50857,14.65903 7.50412,5.93093 18.39788,-1.91321 13.85858,-9.97885 -2.02656,-3.60089 -4.18419,-4.68018 -9.35001,-4.68018 z m 211.1512,3.45447 c -4.30306,0 -9.47729,4.24815 -9.47729,7.78157 0,1.65484 1.22558,4.20828 2.72424,5.67425 5.07155,4.96029 14.8205,2.2279 14.8205,-4.15391 0,-4.22147 -4.40609,-9.30191 -8.06745,-9.30191 z m -194.2967,1.90941 c -3.71477,0.77172 -6.9253,6.44477 -4.40576,10.77049 1.07084,1.83852 2.42329,2.37542 5.40929,2.14781 3.06577,-0.2337 4.89547,0.54229 7.9573,3.3735 2.41821,2.23608 3.27763,3.67713 2.1931,3.67713 -2.39423,0 -6.79467,4.15859 -6.79467,6.42092 0,0.99869 1.64691,3.33047 3.66168,5.1817 2.63489,2.42108 4.88012,3.36677 7.99402,3.36677 5.10075,0 7.26271,-1.98209 7.41147,-6.78974 0.13098,-4.2331 -1.75343,-6.52716 -6.27333,-7.63314 l -3.39487,-0.83213 3.31901,-1.06603 c 4.64544,-1.4927 6.83152,-6.67447 4.61626,-10.94141 -1.35604,-2.61195 -2.64327,-3.3244 -6.54256,-3.61865 -2.67064,-0.20154 -5.45872,0.18708 -6.19499,0.86361 -1.86794,1.71633 -3.34349,1.53206 -3.34349,-0.41607 0,-0.90475 -0.8663,-2.44001 -1.92386,-3.41174 -1.15685,-1.06297 -2.45035,-1.35026 -3.6886,-1.09302 z m 91.95567,2.69657 c -9.06411,0 -13.58348,10.98542 -6.59642,16.03541 1.8161,1.31261 4.84182,2.38845 6.7237,2.38845 5.4954,0 10.02556,-4.03856 10.02556,-8.9353 0,-5.75642 -3.99451,-9.48856 -10.15284,-9.48856 z m 119.10986,0.14843 c -0.86059,0.0238 -1.82161,0.27286 -2.9641,0.75117 -4.24296,1.77634 -4.49284,7.36948 -0.44548,9.97434 3.53557,2.27543 3.89165,2.25237 6.51321,-0.40932 2.61424,-2.65425 2.205,-8.01638 -0.74166,-9.71121 -0.74122,-0.42629 -1.50138,-0.62873 -2.36197,-0.60498 z m -159.19743,0.49253 c -1.34234,0.19179 -2.73236,0.80678 -4.05086,1.90716 -4.83933,4.0388 -5.32454,7.2612 -1.61055,10.67379 5.65525,5.19627 13.29317,2.58464 13.29317,-4.54524 0,-5.37641 -3.60422,-8.6111 -7.63176,-8.03571 z m 118.83083,0.51053 c -4.19288,0 -9.69023,4.57258 -9.69023,8.06044 0,1.32421 1.38488,3.67892 3.0767,5.23343 1.6918,1.55451 4.37051,2.80999 5.95267,2.78878 4.25073,-0.0567 8.55851,-3.92555 9.34756,-8.3933 0.56881,-3.22072 0.16844,-4.26729 -2.22736,-5.80918 -1.60715,-1.03436 -4.5136,-1.88017 -6.45934,-1.88017 z m -137.60674,1.67551 c -2.6371,0.0301 -5.2493,1.3194 -6.85341,4.16966 -2.68019,4.76228 -2.25411,7.49582 1.59831,10.2802 5.9421,4.29473 14.11804,1.11974 14.11804,-5.48307 0,-5.56648 -4.46775,-9.01688 -8.86294,-8.96679 z m 95.28936,0.63646 c -4.62011,-0.58779 -9.58315,2.15131 -10.72069,7.57016 -0.62966,2.99969 -0.12821,4.02775 3.22599,6.62107 4.75778,3.67852 7.38126,3.84478 11.68019,0.73768 4.31575,-3.11926 5.14948,-6.07051 2.86129,-10.13628 -1.62661,-2.89024 -4.2747,-4.43995 -7.04678,-4.79263 z m 20.18087,0.13719 c -2.15903,0.16158 -4.2875,1.23174 -6.44956,3.21833 -4.79588,4.40666 -4.62243,7.49702 0.69269,12.38079 3.40185,3.1258 4.97916,3.82787 7.20587,3.20708 8.64083,-2.40893 11.61992,-11.91815 5.18901,-16.56618 -2.28785,-1.65357 -4.47901,-2.4016 -6.63801,-2.24002 z m -76.97607,6.81449 c -2.52397,-0.18603 -5.2224,0.60121 -7.58281,2.53913 -4.8632,3.99273 -5.29376,7.88352 -1.34621,12.19411 4.34047,4.73971 10.49757,5.0134 15.21947,0.6747 2.68694,-2.46889 3.10128,-3.66968 2.48682,-7.19682 -0.85174,-4.88917 -4.57065,-7.90108 -8.77727,-8.21112 z m -77.42643,1.11551 c -7.77851,-0.0415 -12.2012,8.44444 -7.35273,14.10802 6.48806,7.57884 18.82518,0.19129 15.02365,-8.99603 -1.66119,-4.01469 -3.27113,-5.0885 -7.67092,-5.11199 z m 115.79086,1.13575 c -6.60358,0 -10.28561,6.80271 -5.87436,10.85595 2.56664,2.35832 7.88224,2.31165 10.77699,-0.0967 4.70289,-3.91064 1.58281,-10.75924 -4.90263,-10.75924 z m 76.43268,0.0989 c -1.05494,-0.033 -2.16854,0.0788 -3.31901,0.3441 -5.89953,1.36052 -6.83048,12.52045 -1.13571,13.61323 4.53336,0.86989 9.73563,-0.89445 11.59207,-3.93351 1.59648,-2.61352 1.6095,-3.44865 0.10525,-6.03409 -1.44881,-2.48745 -4.07775,-3.89094 -7.24257,-3.98973 z m 18.02691,0.0269 c -4.11771,0.16728 -7.84919,3.57069 -5.90861,8.26059 0.66935,1.61767 2.2337,3.49603 3.47811,4.17415 h 0.003 c 3.53048,1.9239 7.01288,0.97488 9.11261,-2.48514 1.72555,-2.84388 1.7217,-3.48934 0.003,-6.3332 -1.60638,-2.65091 -4.21635,-3.71677 -6.68697,-3.6164 z m -155.66792,6.58284 c -2.90617,-0.16139 -5.87779,0.81354 -7.94996,3.23407 -1.42855,1.66872 -2.59694,3.76616 -2.59694,4.66219 0,2.98253 3.85453,8.52909 6.64535,9.56277 1.51474,0.56102 3.50494,0.79433 4.4229,0.51728 0.91795,-0.27707 2.1647,-0.50379 2.77074,-0.50379 2.44535,0 6.21213,-5.23671 6.21213,-8.63617 0,-5.14275 -4.66062,-8.56738 -9.50422,-8.83635 z m -17.66222,1.68901 c -0.95855,-0.15586 -1.9048,-0.0394 -2.72423,0.4318 -2.53442,1.45743 -3.40781,7.98886 -1.37068,10.24423 3.28493,3.63686 9.95702,0.87563 9.95702,-4.12018 0,-3.16708 -2.98647,-6.0883 -5.86211,-6.55585 z m 99.78324,0.62971 c -2.6988,-0.006 -5.45346,0.99118 -7.36009,3.21833 -3.4109,3.98435 -3.27813,6.80707 0.47976,10.25996 6.02145,5.53279 15.72124,1.73065 15.72124,-6.16227 0,-4.51578 -4.34291,-7.30702 -8.84091,-7.31602 z m -41.61,0.18443 c -8.33685,0 -12.37243,8.08382 -7.10553,14.2362 3.07784,3.59529 10.24177,4.17725 13.90754,1.12901 5.47175,-4.55 0.6844,-15.36521 -6.80201,-15.36521 z m 78.11422,0.46778 c -1.7749,0.27142 -3.9134,0.53495 -4.75334,0.587 -0.83991,0.052 -1.20201,0.87396 -0.80527,1.82394 0.39675,0.94998 0.0973,1.72724 -0.66576,1.72724 -0.76301,0 -1.38782,0.5732 -1.38782,1.27518 0,0.79881 1.28936,1.00738 3.44629,0.55776 3.15759,-0.65808 3.2554,-0.57986 1.17731,0.91759 -1.30977,0.94381 -1.74256,1.9318 -1.02556,2.33896 0.68288,0.38779 1.5805,0.19993 1.99484,-0.41606 1.0185,-1.51425 4.43269,-0.20304 4.43269,1.7025 0,1.8572 6.36833,6.16567 11.01685,7.45321 5.46974,1.51501 6.50191,1.29806 7.98423,-1.69125 2.01238,-4.05822 -1.28932,-8.33488 -7.22546,-9.35812 -2.65049,-0.45688 -5.86731,-2.15947 -7.7468,-4.09769 -2.37521,-2.44942 -4.05776,-3.18487 -6.4422,-2.82026 z m -0.008,3.20484 c 0.12269,-0.25696 0.58062,0.13951 1.31928,1.30667 0.73203,1.15581 1.06675,2.34387 0.74408,2.64034 -0.32266,0.29648 -0.93845,-0.30232 -1.36822,-1.33141 -0.60466,-1.44783 -0.81783,-2.35864 -0.69514,-2.6156 z m -21.57846,0.96257 c -1.30133,0.0607 -2.31792,0.76508 -2.31792,2.08034 0,1.16109 0.37513,2.45651 0.83464,2.87872 1.14744,1.05433 3.20511,0.93472 5.35057,-0.31261 1.4911,-0.86695 1.51772,-1.35656 0.15909,-2.86074 -1.13993,-1.26207 -2.72505,-1.84642 -4.02638,-1.78571 z m 51.96845,1.21896 c -1.55534,0.15609 -3.07872,0.7314 -4.37396,1.80822 -3.10067,2.57835 -2.98468,8.97258 0.2154,11.91297 5.50146,5.05498 13.78516,1.44121 13.78516,-6.01385 0,-4.86826 -4.9606,-8.17554 -9.6266,-7.70734 z m -87.5401,0.0697 c -4.24309,-0.3879 -8.78362,1.72516 -9.96682,6.67505 -0.96894,4.05348 1.0094,7.88959 4.76556,9.24116 6.38409,2.2973 13.39108,-1.6692 13.39108,-7.5814 0,-5.05807 -3.94676,-7.94693 -8.18982,-8.33481 z m 49.1928,2.33671 c -0.13821,-0.13891 -0.46637,-0.15701 -0.96192,0.009 -2.45692,0.75251 -2.97206,3.24532 -0.67066,3.24532 1.09132,0 1.98504,0.51818 1.98504,1.15149 0,0.63332 1.26887,1.18789 2.8197,1.23246 2.70275,0.0777 2.71574,0.12403 0.3133,1.129 -1.95724,0.81873 -1.5888,0.94526 1.68398,0.578 2.30508,-0.25866 4.4668,-0.72403 4.80228,-1.0323 1.06903,-0.98226 -2.17482,-5.45513 -3.4365,-4.73866 -0.66596,0.37817 -0.94481,1.08359 -0.61926,1.56755 0.32556,0.48404 -0.23003,0.87938 -1.23361,0.87938 -1.00355,0 -1.82349,-0.43255 -1.82349,-0.96033 0,-0.52777 -0.87935,-0.95808 -1.95323,-0.95808 -1.13303,0 -1.5868,-0.54782 -1.0794,-1.30217 0.26079,-0.38777 0.312,-0.66173 0.17377,-0.80065 z m -157.92955,0.23389 c -2.10565,-0.28698 -4.28695,0.2488 -5.52923,1.74748 -2.58096,3.11367 -1.95369,8.98189 1.17487,10.9954 1.53188,0.98588 4.21061,1.78368 5.95267,1.77447 2.50516,-0.0139 2.77421,-0.25068 1.28747,-1.1335 -1.45049,-0.86131 -1.49087,-1.12216 -0.17867,-1.13575 1.01916,-0.0104 1.39943,-0.73267 0.95214,-1.8037 -0.41048,-0.98286 -0.2469,-1.50416 0.36225,-1.15824 1.97905,1.12385 2.68292,-2.95952 1.05004,-6.09256 -0.93581,-1.79554 -2.96589,-2.90661 -5.07154,-3.1936 z m 63.48953,2.36597 c -2.15179,0.27539 -4.31416,1.49094 -6.40304,3.63888 -3.48955,3.58847 -3.61139,7.80303 -0.3133,10.83347 3.39274,3.11739 11.33798,3.11434 14.40685,0.003 3.36828,-3.41987 2.73818,-9.23405 -1.3511,-12.46624 -2.04783,-1.61862 -4.18762,-2.28377 -6.33941,-2.00836 z m 77.6663,3.0294 c -2.40182,0.43386 -4.63707,2.00769 -6.10443,4.61496 -2.45957,4.37029 -2.3107,6.38932 0.6731,9.13097 3.38705,3.11217 8.2359,2.89938 11.96166,-0.52402 3.72575,-3.42338 3.95734,-7.87872 0.57029,-10.9909 -2.1303,-1.9574 -4.69882,-2.66488 -7.10062,-2.23101 z m -116.20451,0.0765 c -6.03427,-0.49955 -13.29317,2.81494 -13.29317,7.41272 0,2.1464 -0.66631,2.80227 -2.85396,2.80227 -7.65238,0 -10.92012,7.02256 -5.5586,11.94896 4.76351,4.37692 6.92422,3.44812 9.43323,-4.0617 2.21122,-6.6185 2.27271,-6.67869 5.07397,-4.87585 1.55928,1.00354 4.84449,1.87686 7.30133,1.9409 8.47484,0.22072 11.77182,-8.19773 5.20859,-13.30063 -1.42475,-1.10776 -3.29996,-1.70015 -5.31139,-1.86667 z m 56.92493,4.45752 c -3.42517,0 -8.81152,4.94072 -8.81152,8.08294 0,2.7542 2.19788,7.04332 4.25891,8.30783 2.55443,1.56721 9.1227,0.8976 11.11476,-1.13351 1.08701,-1.10831 2.35834,-3.42902 2.82704,-5.15472 0.68974,-2.53954 0.12886,-3.80162 -2.93963,-6.62107 -2.08512,-1.9159 -4.98669,-3.48147 -6.44956,-3.48147 z m -37.66929,1.02781 c -4.48341,0.22411 -8.73214,3.48424 -8.75768,8.472 -0.01,2.05829 -0.4335,4.26052 -0.9399,4.89383 -0.83066,1.03886 -7.80105,1.43661 -10.94587,0.62523 -0.68926,-0.17775 -1.67615,-0.26163 -2.1931,-0.18667 -0.51693,0.075 -0.93988,-0.44082 -0.93988,-1.14698 0,-0.78363 -1.22083,-0.55075 -3.133,0.60048 -1.72314,1.03738 -3.17085,1.4859 -3.21622,0.99631 -0.0453,-0.48959 -0.91683,1.96158 -1.93608,5.44484 -1.01924,3.48326 -1.53817,7.48813 -1.15284,8.90157 0.75457,2.76784 7.42627,6.58146 9.95459,5.68999 0.84881,-0.29928 2.21224,0.44058 3.03019,1.64402 1.56248,2.29888 8.9853,3.1554 8.9853,1.03679 0,-0.63333 0.88644,-1.15149 1.97036,-1.15149 1.63366,0 1.52648,0.51885 -0.62661,3.03391 -3.44549,4.02476 -3.27946,7.95734 0.47975,11.41146 2.03452,1.86877 4.47214,2.82064 7.20342,2.80901 4.87114,-0.0209 6.36493,-0.79561 8.40767,-4.35858 3.24269,-5.65591 -2.46843,-12.8958 -10.16997,-12.8958 -2.52955,0 -2.54698,-0.0958 -0.4528,-2.22203 1.23453,-1.25344 1.87724,-3.13397 1.47592,-4.31808 -0.39103,-1.1537 -0.16855,-2.87334 0.49442,-3.82331 0.87499,-1.25379 1.20991,-1.31461 1.22382,-0.2204 0.01,0.82902 0.58353,1.18756 1.27278,0.79614 0.68926,-0.39142 1.25321,0.12675 1.25321,1.1515 0,1.06948 -0.59171,1.52702 -1.38783,1.07503 -3.35027,-1.90256 0.67757,4.96276 4.93201,8.40678 5.75267,4.65687 7.15418,4.67322 9.71716,0.11919 1.88519,-3.34962 1.89134,-3.9466 0.0342,-7.51842 -1.10778,-2.13453 -2.75981,-4.1451 -3.67146,-4.46653 -1.0313,-0.36364 -1.45712,-1.83485 -1.12836,-3.89303 0.39583,-2.4781 -0.1252,-3.62885 -2.07561,-4.58797 -2.5935,-1.27536 -2.59375,-1.28789 -0.12482,-3.55569 3.17429,-2.91668 3.13729,-5.79971 -0.11993,-9.6055 -1.9974,-2.33318 -4.77282,-3.29207 -7.46288,-3.1576 z m 129.6788,0.12368 c -3.81818,0 -4.697,0.52896 -6.21702,3.74235 -0.97363,2.0583 -1.79165,3.10761 -1.8186,2.33223 -0.0269,-0.7754 -1.70851,-2.20015 -3.73756,-3.16436 -8.43599,-4.00839 -15.19795,4.11551 -8.70872,10.46237 2.46973,2.41557 2.51023,2.75343 0.62659,5.22445 -1.1076,1.45297 -2.01441,3.48169 -2.01441,4.50926 0,2.24137 3.42882,5.22731 6.89258,6.0026 1.37852,0.30862 2.8534,0.62147 3.2774,0.69493 0.42399,0.0734 2.25679,-0.94089 4.07288,-2.25349 4.15133,-3.00043 4.25759,-7.11837 0.25944,-10.00807 -2.93566,-2.12182 -2.96814,-2.30006 -0.9301,-5.15473 2.10814,-2.95288 2.11647,-2.95456 5.096,-0.73767 3.2126,2.39028 6.6521,2.0538 10.4686,-1.02556 4.95216,-3.99565 0.41781,-10.62431 -7.26708,-10.62431 z m -52.68315,1.08852 c -2.52885,0.0952 -5.01417,1.13712 -6.69188,3.0969 -3.4109,3.98434 -3.27813,6.80706 0.47975,10.25996 8.45257,7.76659 21.30267,-2.74998 13.1659,-10.77499 -1.85228,-1.82684 -4.42492,-2.67711 -6.95377,-2.58187 z m 71.50557,2.99119 c -0.76746,0.0499 -1.57939,0.21437 -2.42073,0.50827 -1.78594,0.62391 -3.57613,1.92007 -3.97742,2.88097 -1.21123,2.90024 0.56528,7.04819 3.58825,8.38206 3.67926,1.62347 4.69553,1.3217 7.60239,-2.25576 3.79603,-4.67173 0.5797,-9.86557 -4.79249,-9.51554 z m -92.30322,0.67695 c -3.40539,0.0354 -6.63268,1.6562 -7.85207,4.84211 -1.69093,4.41798 1.26652,9.1702 6.24639,10.03732 7.91143,1.37751 13.99363,-4.52633 10.52001,-10.21274 -1.92618,-3.15323 -5.50901,-4.70208 -8.91433,-4.66669 z m 39.69855,8.13923 c -5.07776,0.68012 -8.59003,5.84361 -5.18411,10.61981 1.66344,2.33272 3.14032,2.96868 6.90482,2.96868 9.42453,0 11.87131,-8.37054 3.68125,-12.59443 -1.84171,-0.94983 -3.70936,-1.22078 -5.40196,-0.99406 z m -74.74136,0.17092 c -0.65694,0.0611 -1.06961,0.31171 -1.06961,0.79615 0,0.68276 -0.70493,0.8694 -1.5665,0.41382 -0.86157,-0.45555 -1.14979,-0.40942 -0.63884,0.1125 0.51097,0.51825 0.22899,1.73856 -0.6266,2.71005 -1.2784,1.45158 -1.23774,1.5899 0.22764,0.77815 1.3318,-0.73775 1.26559,-0.30677 -0.26434,1.70025 -1.90294,2.49629 -1.89968,2.80022 0.0955,4.3046 1.4712,1.1107 1.55607,1.38614 0.26679,0.87262 -1.03388,-0.41191 -0.53322,0.33697 1.11368,1.66651 1.96208,1.58401 3.90618,2.17625 5.63938,1.716 3.36735,-0.89433 7.03209,-4.7554 7.03209,-7.41048 0,-1.12632 -0.98689,-3.08834 -2.19309,-4.35858 -1.87034,-1.96922 -6.04519,-3.48459 -8.01606,-3.30154 z m -29.70463,0.0675 c 0.25619,-0.16472 0.9815,0.18221 2.31791,0.94908 1.37852,0.79103 2.5064,1.74539 2.5064,2.12081 0,1.41689 -3.68117,0.61238 -4.33234,-0.94683 -0.53535,-1.2819 -0.74818,-1.95833 -0.49197,-2.12306 z m 145.41717,1.83519 c -4.36493,0 -9.00735,3.79923 -9.00735,7.37223 0,1.47323 1.1684,4.04378 2.59695,5.71249 3.13178,3.65828 7.16962,3.88301 11.64591,0.64771 6.26465,-4.52784 2.75468,-13.73243 -5.23551,-13.73243 z m -153.50176,2.37719 c 0.18877,0.12309 0.2496,0.3823 0.13706,0.78941 -0.1313,0.47499 0.20502,2.58334 0.74654,4.68692 0.54153,2.10358 0.65009,4.13234 0.23987,4.50927 -0.41023,0.37692 -0.74654,0.052 -0.74654,-0.72419 0,-0.77625 -0.55714,-1.09534 -1.2385,-0.70843 -0.74421,0.42263 -0.90038,-0.12542 -0.39162,-1.3719 0.77094,-1.88887 0.63364,-1.91871 -1.5102,-0.34634 -1.29525,0.94998 -1.95433,1.11448 -1.46614,0.36659 0.48818,-0.7479 0.27789,-1.70651 -0.46751,-2.12981 -0.90281,-0.51268 -0.63558,-1.49949 0.80038,-2.95745 1.61662,-1.64134 3.33034,-2.48331 3.89666,-2.11407 z m 97.223,1.07728 c -3.91956,0 -9.12238,4.89452 -9.12238,8.58222 0,1.61208 1.12787,3.96904 2.50639,5.23568 2.99828,2.75495 8.41478,2.98067 12.25292,0.51052 5.74981,-3.70049 1.56844,-14.32842 -5.63693,-14.32842 z m -40.22463,0.15744 c -1.52585,0.23027 -2.96585,1.10137 -4.67012,2.66733 -3.75921,3.45411 -3.92524,7.38668 -0.47974,11.41144 3.4646,4.04708 11.32739,4.31103 14.25021,0.47679 3.66476,-4.80754 2.00211,-10.47612 -3.92113,-13.37484 -2.04396,-1.00028 -3.65338,-1.41102 -5.17922,-1.18072 z m 21.70329,3.29704 c -7.18613,0 -11.129,6.88006 -6.82404,11.90849 4.88697,5.70858 14.9698,2.59586 14.9698,-4.62171 0,-4.27632 -3.36579,-7.28678 -8.14576,-7.28678 z m 40.0484,6.90895 c -3.48875,0 -8.33428,2.84644 -10.05739,5.90814 -4.29705,7.63523 6.15851,14.96078 13.91487,9.74945 2.13733,-1.43604 2.70994,-1.30882 5.19147,1.15148 3.42653,3.39724 7.77673,3.53167 12.14032,0.37783 4.43653,-3.20656 4.35406,-7.77131 -0.21294,-11.79153 -4.15584,-3.65847 -7.79179,-3.94317 -10.83819,-0.85012 -2.17599,2.20931 -2.25702,2.19185 -5.31873,-1.1515 -1.70988,-1.86717 -3.87922,-3.39375 -4.81941,-3.39375 z m 30.83546,3.45447 c -2.94368,0 -5.57935,2.93021 -4.64563,5.16597 0.9995,2.39326 3.74488,2.18349 6.37612,-0.48804 2.47844,-2.51637 1.67782,-4.67793 -1.73049,-4.67793 z m -106.13732,0.0651 c -2.07873,-0.0424 -4.29519,0.67755 -6.33453,2.43792 -3.44414,2.97303 -3.8385,8.45311 -0.82729,11.51042 3.05941,3.10626 11.01053,2.84102 13.5208,-0.45206 4.86071,-6.37644 -0.12281,-13.36907 -6.35898,-13.49628 z m 52.6342,4.54075 c -3.36963,0 -4.53512,0.66579 -6.13627,3.51069 -1.08705,1.93162 -1.62196,4.53708 -1.18954,5.78894 1.02504,2.96753 6.30568,6.11211 8.79195,5.23569 1.76106,-0.6208 1.74627,-0.44285 0.01,1.85545 -2.47271,3.24383 -2.46018,5.99258 0.0293,8.28308 2.46945,2.269 4.68135,2.28202 9.37205,0.0516 6.1271,-2.91131 4.09893,-10.92228 -2.86131,-11.3035 -2.91142,-0.15947 -3.08055,-0.38918 -1.49552,-1.99937 4.43901,-4.50944 0.49144,-11.4227 -6.52052,-11.4227 z m -16.54855,1.34266 c -2.27765,-0.1213 -4.65371,0.58309 -6.42262,2.32771 -3.37909,3.33268 -3.22439,6.18176 0.52135,9.6235 3.46142,3.18051 4.68407,3.39437 8.59614,1.50234 3.60265,-1.74241 4.57593,-3.21295 4.59912,-6.95843 0.0235,-3.79601 -3.49791,-6.29294 -7.29399,-6.49512 z m -17.41746,0.0314 c -2.26765,-0.23793 -4.66922,0.44136 -6.5499,2.29623 -3.05374,3.01177 -3.26127,6.40598 -0.60456,9.89113 4.07926,5.35131 14.34077,2.10988 14.34077,-4.5295 0,-4.31493 -3.40687,-7.26134 -7.18631,-7.65786 z m -31.94668,8.0177 c -1.17298,0.0596 -2.28856,0.92661 -4.15856,2.64484 -3.94086,3.62102 -3.87208,4.68251 0.58498,8.77786 4.22863,3.88544 4.82842,3.996 8.59124,1.57431 3.94885,-2.5414 3.70005,-7.74321 -0.51645,-10.79073 -2.09845,-1.51669 -3.32825,-2.26586 -4.50121,-2.20628 z m 88.18872,2.12081 c -1.96144,-0.0116 -3.9212,0.59653 -4.43758,1.83293 -0.42063,1.00715 -0.39624,2.38238 0.0588,3.05642 0.48577,0.72218 0.23093,0.88675 -0.6217,0.40256 -1.90496,-1.08178 -1.86239,0.77466 0.0563,2.53914 1.73144,1.59092 5.25447,1.8909 4.22464,0.35983 -0.37789,-0.56181 0.21344,-0.95044 1.31683,-0.86361 2.58579,0.20348 4.85939,-3.01426 3.84525,-5.44259 -0.51893,-1.24261 -2.48102,-1.87329 -4.44247,-1.88468 z m -72.79791,2.49865 c -2.62454,0.44899 -4.8266,2.16724 -5.59533,4.98155 -0.98217,3.59566 1.00987,7.27978 4.66766,8.63394 4.38488,1.62332 6.95189,1.31964 9.6315,-1.14251 3.3527,-3.0806 3.1591,-6.41491 -0.57031,-9.84164 -2.46145,-2.26169 -5.50901,-3.08034 -8.13352,-2.63134 z m 40.64806,1.47985 c -1.03784,0.0275 -2.13897,0.25532 -3.28229,0.69045 -6.42489,2.44529 -8.1949,8.82665 -3.31901,11.96471 3.20295,2.06136 5.79311,2.24035 10.18466,0.70618 3.77403,-1.31842 5.05594,-4.50804 3.41202,-8.481 -1.34582,-3.25252 -3.88186,-4.96286 -6.99538,-4.88034 z m -19.75251,2.9327 c -6.49227,0 -9.29201,5.15726 -5.10578,9.40759 4.01729,4.07881 11.71199,1.80512 11.71199,-3.46122 0,-4.07536 -2.07935,-5.94637 -6.60621,-5.94637 z" />
  </g>
</svg>
